<?xml version="1.0" encoding="UTF-8" standalone="no"?>
<!DOCTYPE svg PUBLIC "-//W3C//DTD SVG 1.1//EN"
 "http://www.w3.org/Graphics/SVG/1.1/DTD/svg11.dtd">
<!-- Generated by graphviz version 2.47.0 (20210316.0004)
 -->
<!-- Title: dependencies Pages: 1 -->
<svg width="10619pt" height="284pt"
 viewBox="0.00 0.00 10619.00 284.00" xmlns="http://www.w3.org/2000/svg" xmlns:xlink="http://www.w3.org/1999/xlink">
<g id="graph0" class="graph" transform="scale(1 1) rotate(0) translate(4 280)">
<title>dependencies</title>
<polygon fill="white" stroke="transparent" points="-4,4 -4,-280 10615,-280 10615,4 -4,4"/>
<text text-anchor="start" x="5284.51" y="-42.4" font-family="Times-12" font-weight="bold" font-size="14.00">Legend</text>
<polygon fill="#ffffb3" stroke="transparent" points="5071.5,-10 5071.5,-30 5091.5,-30 5091.5,-10 5071.5,-10"/>
<text text-anchor="start" x="5095.13" y="-15.4" font-family="Times-12" font-size="14.00"> &#160;Declarations</text>
<polygon fill="#8dd3c7" stroke="transparent" points="5184.5,-10 5184.5,-30 5204.5,-30 5204.5,-10 5184.5,-10"/>
<text text-anchor="start" x="5208.23" y="-15.4" font-family="Times-12" font-size="14.00"> &#160;Module</text>
<polygon fill="#80b1d3" stroke="transparent" points="5270.5,-10 5270.5,-30 5290.5,-30 5290.5,-10 5270.5,-10"/>
<text text-anchor="start" x="5294.28" y="-15.4" font-family="Times-12" font-size="14.00"> &#160;Bootstrap</text>
<polygon fill="#fdb462" stroke="transparent" points="5367.5,-10 5367.5,-30 5387.5,-30 5387.5,-10 5367.5,-10"/>
<text text-anchor="start" x="5391.17" y="-15.4" font-family="Times-12" font-size="14.00"> &#160;Providers</text>
<polygon fill="#fb8072" stroke="transparent" points="5463.5,-10 5463.5,-30 5483.5,-30 5483.5,-10 5463.5,-10"/>
<text text-anchor="start" x="5487.23" y="-15.4" font-family="Times-12" font-size="14.00"> &#160;Exports</text>
<g id="clust1" class="cluster">
<title>cluster_AppModule</title>
<polygon fill="none" stroke="black" stroke-dasharray="1,5" points="8,-70 8,-268 10603,-268 10603,-70 8,-70"/>
</g>
<g id="clust60" class="cluster">
<title>cluster_AppModule_providers</title>
<polygon fill="none" stroke="black" points="9514,-78 9514,-130 10595,-130 10595,-78 9514,-78"/>
</g>
<g id="clust57" class="cluster">
<title>cluster_AppModule_imports</title>
<polygon fill="none" stroke="black" points="9254,-78 9254,-130 9506,-130 9506,-78 9254,-78"/>
</g>
<g id="clust59" class="cluster">
<title>cluster_AppModule_bootstrap</title>
<polygon fill="none" stroke="black" points="5187,-208 5187,-260 5311,-260 5311,-208 5187,-208"/>
</g>
<g id="clust2" class="cluster">
<title>cluster_AppModule_declarations</title>
<polygon fill="none" stroke="black" points="16,-78 16,-130 9246,-130 9246,-78 16,-78"/>
</g>
<!-- AddToCartComponent -->
<g id="node1" class="node">
<title>AddToCartComponent</title>
<polygon fill="#ffffb3" stroke="black" points="9237.59,-122 9092.41,-122 9092.41,-86 9237.59,-86 9237.59,-122"/>
<text text-anchor="middle" x="9165" y="-99.8" font-family="Times,serif" font-size="14.00">AddToCartComponent</text>
</g>
<!-- AppModule -->
<g id="node55" class="node">
<title>AppModule</title>
<polygon fill="#8dd3c7" stroke="black" points="5290.66,-187 5287.66,-191 5266.66,-191 5263.66,-187 5207.34,-187 5207.34,-151 5290.66,-151 5290.66,-187"/>
<text text-anchor="middle" x="5249" y="-164.8" font-family="Times,serif" font-size="14.00">AppModule</text>
</g>
<!-- AddToCartComponent&#45;&gt;AppModule -->
<g id="edge1" class="edge">
<title>AddToCartComponent&#45;&gt;AppModule</title>
<path fill="none" stroke="black" d="M9165,-122.04C9165,-143.66 9165,-177 9165,-177 9165,-177 5300.98,-177 5300.98,-177"/>
<polygon fill="black" stroke="black" points="5300.98,-173.5 5290.98,-177 5300.98,-180.5 5300.98,-173.5"/>
</g>
<!-- AddUpdateReviewComponent -->
<g id="node2" class="node">
<title>AddUpdateReviewComponent</title>
<polygon fill="#ffffb3" stroke="black" points="9074.13,-122 8885.87,-122 8885.87,-86 9074.13,-86 9074.13,-122"/>
<text text-anchor="middle" x="8980" y="-99.8" font-family="Times,serif" font-size="14.00">AddUpdateReviewComponent</text>
</g>
<!-- AddUpdateReviewComponent&#45;&gt;AppModule -->
<g id="edge2" class="edge">
<title>AddUpdateReviewComponent&#45;&gt;AppModule</title>
<path fill="none" stroke="black" d="M8980,-122.17C8980,-143.5 8980,-176 8980,-176 8980,-176 5300.9,-176 5300.9,-176"/>
<polygon fill="black" stroke="black" points="5300.9,-172.5 5290.9,-176 5300.9,-179.5 5300.9,-172.5"/>
</g>
<!-- AddbookComponent -->
<g id="node3" class="node">
<title>AddbookComponent</title>
<polygon fill="#ffffb3" stroke="black" points="8867.94,-122 8734.06,-122 8734.06,-86 8867.94,-86 8867.94,-122"/>
<text text-anchor="middle" x="8801" y="-99.8" font-family="Times,serif" font-size="14.00">AddbookComponent</text>
</g>
<!-- AddbookComponent&#45;&gt;AppModule -->
<g id="edge3" class="edge">
<title>AddbookComponent&#45;&gt;AppModule</title>
<path fill="none" stroke="black" d="M8801,-122.28C8801,-143.32 8801,-175 8801,-175 8801,-175 5300.74,-175 5300.74,-175"/>
<polygon fill="black" stroke="black" points="5300.74,-171.5 5290.74,-175 5300.74,-178.5 5300.74,-171.5"/>
</g>
<!-- AdminDashboardComponent -->
<g id="node4" class="node">
<title>AdminDashboardComponent</title>
<polygon fill="#ffffb3" stroke="black" points="8716.36,-122 8535.64,-122 8535.64,-86 8716.36,-86 8716.36,-122"/>
<text text-anchor="middle" x="8626" y="-99.8" font-family="Times,serif" font-size="14.00">AdminDashboardComponent</text>
</g>
<!-- AdminDashboardComponent&#45;&gt;AppModule -->
<g id="edge4" class="edge">
<title>AdminDashboardComponent&#45;&gt;AppModule</title>
<path fill="none" stroke="black" d="M8626,-122.13C8626,-142.57 8626,-173 8626,-173 8626,-173 5300.78,-173 5300.78,-173"/>
<polygon fill="black" stroke="black" points="5300.78,-169.5 5290.78,-173 5300.78,-176.5 5300.78,-169.5"/>
</g>
<!-- AdminDashboardComponent&#45;&gt;AppModule -->
<g id="edge5" class="edge">
<title>AdminDashboardComponent&#45;&gt;AppModule</title>
<path fill="none" stroke="black" d="M8671.22,-122.03C8671.22,-142.77 8671.22,-174 8671.22,-174 8671.22,-174 5300.73,-174 5300.73,-174"/>
<polygon fill="black" stroke="black" points="5300.73,-170.5 5290.73,-174 5300.73,-177.5 5300.73,-170.5"/>
</g>
<!-- AdminDashboardComponent&#45;&gt;AppModule -->
<g id="edge6" class="edge">
<title>AdminDashboardComponent&#45;&gt;AppModule</title>
<path fill="none" stroke="black" d="M8580.78,-122.22C8580.78,-142.37 8580.78,-172 8580.78,-172 8580.78,-172 5300.82,-172 5300.82,-172"/>
<polygon fill="black" stroke="black" points="5300.82,-168.5 5290.82,-172 5300.82,-175.5 5300.82,-168.5"/>
</g>
<!-- AdminHomeComponent -->
<g id="node5" class="node">
<title>AdminHomeComponent</title>
<polygon fill="#ffffb3" stroke="black" points="8517.43,-122 8362.57,-122 8362.57,-86 8517.43,-86 8517.43,-122"/>
<text text-anchor="middle" x="8440" y="-99.8" font-family="Times,serif" font-size="14.00">AdminHomeComponent</text>
</g>
<!-- AdminHomeComponent&#45;&gt;AppModule -->
<g id="edge7" class="edge">
<title>AdminHomeComponent&#45;&gt;AppModule</title>
<path fill="none" stroke="black" d="M8440,-122.31C8440,-142.15 8440,-171 8440,-171 8440,-171 5300.81,-171 5300.81,-171"/>
<polygon fill="black" stroke="black" points="5300.81,-167.5 5290.81,-171 5300.81,-174.5 5300.81,-167.5"/>
</g>
<!-- AdminReturnProcessComponent -->
<g id="node6" class="node">
<title>AdminReturnProcessComponent</title>
<polygon fill="#ffffb3" stroke="black" points="8344.58,-122 8143.42,-122 8143.42,-86 8344.58,-86 8344.58,-122"/>
<text text-anchor="middle" x="8244" y="-99.8" font-family="Times,serif" font-size="14.00">AdminReturnProcessComponent</text>
</g>
<!-- AdminReturnProcessComponent&#45;&gt;AppModule -->
<g id="edge8" class="edge">
<title>AdminReturnProcessComponent&#45;&gt;AppModule</title>
<path fill="none" stroke="black" d="M8244,-122.11C8244,-141.34 8244,-169 8244,-169 8244,-169 5300.77,-169 5300.77,-169"/>
<polygon fill="black" stroke="black" points="5300.77,-165.5 5290.77,-169 5300.77,-172.5 5300.77,-165.5"/>
</g>
<!-- AllReviewsComponent -->
<g id="node7" class="node">
<title>AllReviewsComponent</title>
<polygon fill="#ffffb3" stroke="black" points="8125.93,-122 7978.07,-122 7978.07,-86 8125.93,-86 8125.93,-122"/>
<text text-anchor="middle" x="8052" y="-99.8" font-family="Times,serif" font-size="14.00">AllReviewsComponent</text>
</g>
<!-- AllReviewsComponent&#45;&gt;AppModule -->
<g id="edge9" class="edge">
<title>AllReviewsComponent&#45;&gt;AppModule</title>
<path fill="none" stroke="black" d="M8052,-122.17C8052,-141.09 8052,-168 8052,-168 8052,-168 5300.8,-168 5300.8,-168"/>
<polygon fill="black" stroke="black" points="5300.8,-164.5 5290.8,-168 5300.8,-171.5 5300.8,-164.5"/>
</g>
<!-- AllorderstatusComponent -->
<g id="node8" class="node">
<title>AllorderstatusComponent</title>
<polygon fill="#ffffb3" stroke="black" points="7960.14,-122 7799.86,-122 7799.86,-86 7960.14,-86 7960.14,-122"/>
<text text-anchor="middle" x="7880" y="-99.8" font-family="Times,serif" font-size="14.00">AllorderstatusComponent</text>
</g>
<!-- AllorderstatusComponent&#45;&gt;AppModule -->
<g id="edge10" class="edge">
<title>AllorderstatusComponent&#45;&gt;AppModule</title>
<path fill="none" stroke="black" d="M7880,-122.22C7880,-140.83 7880,-167 7880,-167 7880,-167 5300.86,-167 5300.86,-167"/>
<polygon fill="black" stroke="black" points="5300.86,-163.5 5290.86,-167 5300.86,-170.5 5300.86,-163.5"/>
</g>
<!-- AppComponent -->
<g id="node9" class="node">
<title>AppComponent</title>
<polygon fill="#ffffb3" stroke="black" points="7781.94,-122 7676.06,-122 7676.06,-86 7781.94,-86 7781.94,-122"/>
<text text-anchor="middle" x="7729" y="-99.8" font-family="Times,serif" font-size="14.00">AppComponent</text>
</g>
<!-- AppComponent&#45;&gt;AppModule -->
<g id="edge11" class="edge">
<title>AppComponent&#45;&gt;AppModule</title>
<path fill="none" stroke="black" d="M7729,-122.27C7729,-140.56 7729,-166 7729,-166 7729,-166 5300.75,-166 5300.75,-166"/>
<polygon fill="black" stroke="black" points="5300.75,-162.5 5290.75,-166 5300.75,-169.5 5300.75,-162.5"/>
</g>
<!-- AverageRatingComponent -->
<g id="node10" class="node">
<title>AverageRatingComponent</title>
<polygon fill="#ffffb3" stroke="black" points="7658.08,-122 7491.92,-122 7491.92,-86 7658.08,-86 7658.08,-122"/>
<text text-anchor="middle" x="7575" y="-99.8" font-family="Times,serif" font-size="14.00">AverageRatingComponent</text>
</g>
<!-- AverageRatingComponent&#45;&gt;AppModule -->
<g id="edge12" class="edge">
<title>AverageRatingComponent&#45;&gt;AppModule</title>
<path fill="none" stroke="black" d="M7575,-122.3C7575,-140.27 7575,-165 7575,-165 7575,-165 5300.86,-165 5300.86,-165"/>
<polygon fill="black" stroke="black" points="5300.86,-161.5 5290.86,-165 5300.86,-168.5 5300.86,-161.5"/>
</g>
<!-- BookCarouselComponent -->
<g id="node11" class="node">
<title>BookCarouselComponent</title>
<polygon fill="#ffffb3" stroke="black" points="7473.93,-122 7312.07,-122 7312.07,-86 7473.93,-86 7473.93,-122"/>
<text text-anchor="middle" x="7393" y="-99.8" font-family="Times,serif" font-size="14.00">BookCarouselComponent</text>
</g>
<!-- BookCarouselComponent&#45;&gt;AppModule -->
<g id="edge13" class="edge">
<title>BookCarouselComponent&#45;&gt;AppModule</title>
<path fill="none" stroke="black" d="M7393,-122C7393,-139.68 7393,-164 7393,-164 7393,-164 5300.87,-164 5300.87,-164"/>
<polygon fill="black" stroke="black" points="5300.87,-160.5 5290.87,-164 5300.87,-167.5 5300.87,-160.5"/>
</g>
<!-- BookDealComponent -->
<g id="node12" class="node">
<title>BookDealComponent</title>
<polygon fill="#ffffb3" stroke="black" points="7294.1,-122 7155.9,-122 7155.9,-86 7294.1,-86 7294.1,-122"/>
<text text-anchor="middle" x="7225" y="-99.8" font-family="Times,serif" font-size="14.00">BookDealComponent</text>
</g>
<!-- BookDealComponent&#45;&gt;AppModule -->
<g id="edge14" class="edge">
<title>BookDealComponent&#45;&gt;AppModule</title>
<path fill="none" stroke="black" d="M7225,-122.02C7225,-139.37 7225,-163 7225,-163 7225,-163 5300.73,-163 5300.73,-163"/>
<polygon fill="black" stroke="black" points="5300.73,-159.5 5290.73,-163 5300.73,-166.5 5300.73,-159.5"/>
</g>
<!-- BookHeroComponent -->
<g id="node13" class="node">
<title>BookHeroComponent</title>
<polygon fill="#ffffb3" stroke="black" points="7137.65,-122 6998.35,-122 6998.35,-86 7137.65,-86 7137.65,-122"/>
<text text-anchor="middle" x="7068" y="-99.8" font-family="Times,serif" font-size="14.00">BookHeroComponent</text>
</g>
<!-- BookHeroComponent&#45;&gt;AppModule -->
<g id="edge15" class="edge">
<title>BookHeroComponent&#45;&gt;AppModule</title>
<path fill="none" stroke="black" d="M7068,-122.03C7068,-139.06 7068,-162 7068,-162 7068,-162 5300.85,-162 5300.85,-162"/>
<polygon fill="black" stroke="black" points="5300.85,-158.5 5290.85,-162 5300.85,-165.5 5300.85,-158.5"/>
</g>
<!-- BookdetailsComponent -->
<g id="node14" class="node">
<title>BookdetailsComponent</title>
<polygon fill="#ffffb3" stroke="black" points="6980.21,-122 6831.79,-122 6831.79,-86 6980.21,-86 6980.21,-122"/>
<text text-anchor="middle" x="6906" y="-99.8" font-family="Times,serif" font-size="14.00">BookdetailsComponent</text>
</g>
<!-- BookdetailsComponent&#45;&gt;AppModule -->
<g id="edge16" class="edge">
<title>BookdetailsComponent&#45;&gt;AppModule</title>
<path fill="none" stroke="black" d="M6906,-122.04C6906,-138.73 6906,-161 6906,-161 6906,-161 5300.79,-161 5300.79,-161"/>
<polygon fill="black" stroke="black" points="5300.79,-157.5 5290.79,-161 5300.79,-164.5 5300.79,-157.5"/>
</g>
<!-- CartComponent -->
<g id="node15" class="node">
<title>CartComponent</title>
<polygon fill="#ffffb3" stroke="black" points="6813.94,-122 6708.06,-122 6708.06,-86 6813.94,-86 6813.94,-122"/>
<text text-anchor="middle" x="6761" y="-99.8" font-family="Times,serif" font-size="14.00">CartComponent</text>
</g>
<!-- CartComponent&#45;&gt;AppModule -->
<g id="edge17" class="edge">
<title>CartComponent&#45;&gt;AppModule</title>
<path fill="none" stroke="black" d="M6761,-122.03C6761,-138.4 6761,-160 6761,-160 6761,-160 5301.02,-160 5301.02,-160"/>
<polygon fill="black" stroke="black" points="5301.02,-156.5 5291.02,-160 5301.02,-163.5 5301.02,-156.5"/>
</g>
<!-- CategorybooksComponent -->
<g id="node16" class="node">
<title>CategorybooksComponent</title>
<polygon fill="#ffffb3" stroke="black" points="6690.09,-122 6523.91,-122 6523.91,-86 6690.09,-86 6690.09,-122"/>
<text text-anchor="middle" x="6607" y="-99.8" font-family="Times,serif" font-size="14.00">CategorybooksComponent</text>
</g>
<!-- CategorybooksComponent&#45;&gt;AppModule -->
<g id="edge18" class="edge">
<title>CategorybooksComponent&#45;&gt;AppModule</title>
<path fill="none" stroke="black" d="M6607,-122.01C6607,-138.05 6607,-159 6607,-159 6607,-159 5300.76,-159 5300.76,-159"/>
<polygon fill="black" stroke="black" points="5300.76,-155.5 5290.76,-159 5300.76,-162.5 5300.76,-155.5"/>
</g>
<!-- CategorybookslistComponent -->
<g id="node17" class="node">
<title>CategorybookslistComponent</title>
<polygon fill="#ffffb3" stroke="black" points="6505.71,-122 6322.29,-122 6322.29,-86 6505.71,-86 6505.71,-122"/>
<text text-anchor="middle" x="6414" y="-99.8" font-family="Times,serif" font-size="14.00">CategorybookslistComponent</text>
</g>
<!-- CategorybookslistComponent&#45;&gt;AppModule -->
<g id="edge19" class="edge">
<title>CategorybookslistComponent&#45;&gt;AppModule</title>
<path fill="none" stroke="black" d="M6414,-122.28C6414,-137.95 6414,-158 6414,-158 6414,-158 5300.81,-158 5300.81,-158"/>
<polygon fill="black" stroke="black" points="5300.81,-154.5 5290.81,-158 5300.81,-161.5 5300.81,-154.5"/>
</g>
<!-- DashboardInventoryComponent -->
<g id="node18" class="node">
<title>DashboardInventoryComponent</title>
<polygon fill="#ffffb3" stroke="black" points="6304.4,-122 6107.6,-122 6107.6,-86 6304.4,-86 6304.4,-122"/>
<text text-anchor="middle" x="6206" y="-99.8" font-family="Times,serif" font-size="14.00">DashboardInventoryComponent</text>
</g>
<!-- DashboardInventoryComponent&#45;&gt;AppModule -->
<g id="edge20" class="edge">
<title>DashboardInventoryComponent&#45;&gt;AppModule</title>
<path fill="none" stroke="black" d="M6206,-122.24C6206,-137.57 6206,-157 6206,-157 6206,-157 5300.74,-157 5300.74,-157"/>
<polygon fill="black" stroke="black" points="5300.74,-153.5 5290.74,-157 5300.74,-160.5 5300.74,-153.5"/>
</g>
<!-- DealOfTheDayComponent -->
<g id="node19" class="node">
<title>DealOfTheDayComponent</title>
<polygon fill="#ffffb3" stroke="black" points="6089.61,-122 5922.39,-122 5922.39,-86 6089.61,-86 6089.61,-122"/>
<text text-anchor="middle" x="6006" y="-99.8" font-family="Times,serif" font-size="14.00">DealOfTheDayComponent</text>
</g>
<!-- DealOfTheDayComponent&#45;&gt;AppModule -->
<g id="edge21" class="edge">
<title>DealOfTheDayComponent&#45;&gt;AppModule</title>
<path fill="none" stroke="black" d="M6006,-122.19C6006,-137.18 6006,-156 6006,-156 6006,-156 5300.78,-156 5300.78,-156"/>
<polygon fill="black" stroke="black" points="5300.78,-152.5 5290.78,-156 5300.78,-159.5 5300.78,-152.5"/>
</g>
<!-- DeleteBookInventoryComponent -->
<g id="node20" class="node">
<title>DeleteBookInventoryComponent</title>
<polygon fill="#ffffb3" stroke="black" points="5904.13,-122 5701.87,-122 5701.87,-86 5904.13,-86 5904.13,-122"/>
<text text-anchor="middle" x="5803" y="-99.8" font-family="Times,serif" font-size="14.00">DeleteBookInventoryComponent</text>
</g>
<!-- DeleteBookInventoryComponent&#45;&gt;AppModule -->
<g id="edge22" class="edge">
<title>DeleteBookInventoryComponent&#45;&gt;AppModule</title>
<path fill="none" stroke="black" d="M5803,-122.12C5803,-136.78 5803,-155 5803,-155 5803,-155 5301.09,-155 5301.09,-155"/>
<polygon fill="black" stroke="black" points="5301.09,-151.5 5291.09,-155 5301.09,-158.5 5301.09,-151.5"/>
</g>
<!-- DeletebookComponent -->
<g id="node21" class="node">
<title>DeletebookComponent</title>
<polygon fill="#ffffb3" stroke="black" points="5683.86,-122 5538.14,-122 5538.14,-86 5683.86,-86 5683.86,-122"/>
<text text-anchor="middle" x="5611" y="-99.8" font-family="Times,serif" font-size="14.00">DeletebookComponent</text>
</g>
<!-- DeletebookComponent&#45;&gt;AppModule -->
<g id="edge23" class="edge">
<title>DeletebookComponent&#45;&gt;AppModule</title>
<path fill="none" stroke="black" d="M5611,-122.05C5611,-136.37 5611,-154 5611,-154 5611,-154 5300.88,-154 5300.88,-154"/>
<polygon fill="black" stroke="black" points="5300.88,-150.5 5290.88,-154 5300.88,-157.5 5300.88,-150.5"/>
</g>
<!-- DisplayInventoryComponent -->
<g id="node22" class="node">
<title>DisplayInventoryComponent</title>
<polygon fill="#ffffb3" stroke="black" points="5519.81,-122 5340.19,-122 5340.19,-86 5519.81,-86 5519.81,-122"/>
<text text-anchor="middle" x="5430" y="-99.8" font-family="Times,serif" font-size="14.00">DisplayInventoryComponent</text>
</g>
<!-- DisplayInventoryComponent&#45;&gt;AppModule -->
<g id="edge24" class="edge">
<title>DisplayInventoryComponent&#45;&gt;AppModule</title>
<path fill="none" stroke="black" d="M5430,-122.25C5430,-136.18 5430,-153 5430,-153 5430,-153 5300.98,-153 5300.98,-153"/>
<polygon fill="black" stroke="black" points="5300.98,-149.5 5290.98,-153 5300.98,-156.5 5300.98,-149.5"/>
</g>
<!-- EditorspickComponent -->
<g id="node23" class="node">
<title>EditorspickComponent</title>
<polygon fill="#ffffb3" stroke="black" points="5321.88,-122 5176.12,-122 5176.12,-86 5321.88,-86 5321.88,-122"/>
<text text-anchor="middle" x="5249" y="-99.8" font-family="Times,serif" font-size="14.00">EditorspickComponent</text>
</g>
<!-- EditorspickComponent&#45;&gt;AppModule -->
<g id="edge25" class="edge">
<title>EditorspickComponent&#45;&gt;AppModule</title>
<path fill="none" stroke="black" d="M5249,-122.11C5249,-122.11 5249,-140.99 5249,-140.99"/>
<polygon fill="black" stroke="black" points="5245.5,-140.99 5249,-150.99 5252.5,-140.99 5245.5,-140.99"/>
</g>
<!-- FilterComponent -->
<g id="node24" class="node">
<title>FilterComponent</title>
<polygon fill="#ffffb3" stroke="black" points="5157.66,-122 5046.34,-122 5046.34,-86 5157.66,-86 5157.66,-122"/>
<text text-anchor="middle" x="5102" y="-99.8" font-family="Times,serif" font-size="14.00">FilterComponent</text>
</g>
<!-- FilterComponent&#45;&gt;AppModule -->
<g id="edge26" class="edge">
<title>FilterComponent&#45;&gt;AppModule</title>
<path fill="none" stroke="black" d="M5102,-122.25C5102,-136.18 5102,-153 5102,-153 5102,-153 5197.27,-153 5197.27,-153"/>
<polygon fill="black" stroke="black" points="5197.27,-156.5 5207.27,-153 5197.27,-149.5 5197.27,-156.5"/>
</g>
<!-- FooterComponent -->
<g id="node25" class="node">
<title>FooterComponent</title>
<polygon fill="#ffffb3" stroke="black" points="5027.88,-122 4910.12,-122 4910.12,-86 5027.88,-86 5027.88,-122"/>
<text text-anchor="middle" x="4969" y="-99.8" font-family="Times,serif" font-size="14.00">FooterComponent</text>
</g>
<!-- FooterComponent&#45;&gt;AppModule -->
<g id="edge27" class="edge">
<title>FooterComponent&#45;&gt;AppModule</title>
<path fill="none" stroke="black" d="M4969,-122.05C4969,-136.37 4969,-154 4969,-154 4969,-154 5197.08,-154 5197.08,-154"/>
<polygon fill="black" stroke="black" points="5197.08,-157.5 5207.08,-154 5197.08,-150.5 5197.08,-157.5"/>
</g>
<!-- ForgotPasswordComponent -->
<g id="node26" class="node">
<title>ForgotPasswordComponent</title>
<polygon fill="#ffffb3" stroke="black" points="4892.32,-122 4719.68,-122 4719.68,-86 4892.32,-86 4892.32,-122"/>
<text text-anchor="middle" x="4806" y="-99.8" font-family="Times,serif" font-size="14.00">ForgotPasswordComponent</text>
</g>
<!-- ForgotPasswordComponent&#45;&gt;AppModule -->
<g id="edge28" class="edge">
<title>ForgotPasswordComponent&#45;&gt;AppModule</title>
<path fill="none" stroke="black" d="M4806,-122.12C4806,-136.78 4806,-155 4806,-155 4806,-155 5197.32,-155 5197.32,-155"/>
<polygon fill="black" stroke="black" points="5197.32,-158.5 5207.32,-155 5197.32,-151.5 5197.32,-158.5"/>
</g>
<!-- HomeComponent -->
<g id="node27" class="node">
<title>HomeComponent</title>
<polygon fill="#ffffb3" stroke="black" points="4701.55,-122 4586.45,-122 4586.45,-86 4701.55,-86 4701.55,-122"/>
<text text-anchor="middle" x="4644" y="-99.8" font-family="Times,serif" font-size="14.00">HomeComponent</text>
</g>
<!-- HomeComponent&#45;&gt;AppModule -->
<g id="edge29" class="edge">
<title>HomeComponent&#45;&gt;AppModule</title>
<path fill="none" stroke="black" d="M4644,-122.19C4644,-137.18 4644,-156 4644,-156 4644,-156 5196.94,-156 5196.94,-156"/>
<polygon fill="black" stroke="black" points="5196.94,-159.5 5206.94,-156 5196.94,-152.5 5196.94,-159.5"/>
</g>
<!-- LeftSidebarComponent -->
<g id="node28" class="node">
<title>LeftSidebarComponent</title>
<polygon fill="#ffffb3" stroke="black" points="4568.91,-122 4421.09,-122 4421.09,-86 4568.91,-86 4568.91,-122"/>
<text text-anchor="middle" x="4495" y="-99.8" font-family="Times,serif" font-size="14.00">LeftSidebarComponent</text>
</g>
<!-- LeftSidebarComponent&#45;&gt;AppModule -->
<g id="edge30" class="edge">
<title>LeftSidebarComponent&#45;&gt;AppModule</title>
<path fill="none" stroke="black" d="M4495,-122.24C4495,-137.57 4495,-157 4495,-157 4495,-157 5197.12,-157 5197.12,-157"/>
<polygon fill="black" stroke="black" points="5197.12,-160.5 5207.12,-157 5197.12,-153.5 5197.12,-160.5"/>
</g>
<!-- LoginComponent -->
<g id="node29" class="node">
<title>LoginComponent</title>
<polygon fill="#ffffb3" stroke="black" points="4403.28,-122 4288.72,-122 4288.72,-86 4403.28,-86 4403.28,-122"/>
<text text-anchor="middle" x="4346" y="-99.8" font-family="Times,serif" font-size="14.00">LoginComponent</text>
</g>
<!-- LoginComponent&#45;&gt;AppModule -->
<g id="edge31" class="edge">
<title>LoginComponent&#45;&gt;AppModule</title>
<path fill="none" stroke="black" d="M4346,-122.28C4346,-137.95 4346,-158 4346,-158 4346,-158 5197.26,-158 5197.26,-158"/>
<polygon fill="black" stroke="black" points="5197.26,-161.5 5207.26,-158 5197.26,-154.5 5197.26,-161.5"/>
</g>
<!-- MainComponent -->
<g id="node30" class="node">
<title>MainComponent</title>
<polygon fill="#ffffb3" stroke="black" points="4270.38,-122 4159.62,-122 4159.62,-86 4270.38,-86 4270.38,-122"/>
<text text-anchor="middle" x="4215" y="-99.8" font-family="Times,serif" font-size="14.00">MainComponent</text>
</g>
<!-- MainComponent&#45;&gt;AppModule -->
<g id="edge32" class="edge">
<title>MainComponent&#45;&gt;AppModule</title>
<path fill="none" stroke="black" d="M4215,-122.01C4215,-138.05 4215,-159 4215,-159 4215,-159 5197.19,-159 5197.19,-159"/>
<polygon fill="black" stroke="black" points="5197.19,-162.5 5207.19,-159 5197.19,-155.5 5197.19,-162.5"/>
</g>
<!-- NavbarAdminComponent -->
<g id="node31" class="node">
<title>NavbarAdminComponent</title>
<polygon fill="#ffffb3" stroke="black" points="4141.92,-122 3980.08,-122 3980.08,-86 4141.92,-86 4141.92,-122"/>
<text text-anchor="middle" x="4061" y="-99.8" font-family="Times,serif" font-size="14.00">NavbarAdminComponent</text>
</g>
<!-- NavbarAdminComponent&#45;&gt;AppModule -->
<g id="edge33" class="edge">
<title>NavbarAdminComponent&#45;&gt;AppModule</title>
<path fill="none" stroke="black" d="M4061,-122.03C4061,-138.4 4061,-160 4061,-160 4061,-160 5197.07,-160 5197.07,-160"/>
<polygon fill="black" stroke="black" points="5197.07,-163.5 5207.07,-160 5197.07,-156.5 5197.07,-163.5"/>
</g>
<!-- NavbarComponent -->
<g id="node32" class="node">
<title>NavbarComponent</title>
<polygon fill="#ffffb3" stroke="black" points="3962.03,-122 3839.97,-122 3839.97,-86 3962.03,-86 3962.03,-122"/>
<text text-anchor="middle" x="3901" y="-99.8" font-family="Times,serif" font-size="14.00">NavbarComponent</text>
</g>
<!-- NavbarComponent&#45;&gt;AppModule -->
<g id="edge34" class="edge">
<title>NavbarComponent&#45;&gt;AppModule</title>
<path fill="none" stroke="black" d="M3901,-122.04C3901,-138.73 3901,-161 3901,-161 3901,-161 5197.18,-161 5197.18,-161"/>
<polygon fill="black" stroke="black" points="5197.18,-164.5 5207.18,-161 5197.18,-157.5 5197.18,-164.5"/>
</g>
<!-- OrderDetailsComponent -->
<g id="node33" class="node">
<title>OrderDetailsComponent</title>
<polygon fill="#ffffb3" stroke="black" points="3821.63,-122 3668.37,-122 3668.37,-86 3821.63,-86 3821.63,-122"/>
<text text-anchor="middle" x="3745" y="-99.8" font-family="Times,serif" font-size="14.00">OrderDetailsComponent</text>
</g>
<!-- OrderDetailsComponent&#45;&gt;AppModule -->
<g id="edge35" class="edge">
<title>OrderDetailsComponent&#45;&gt;AppModule</title>
<path fill="none" stroke="black" d="M3745,-122.03C3745,-139.06 3745,-162 3745,-162 3745,-162 5197.2,-162 5197.2,-162"/>
<polygon fill="black" stroke="black" points="5197.2,-165.5 5207.2,-162 5197.2,-158.5 5197.2,-165.5"/>
</g>
<!-- OrderListComponent -->
<g id="node34" class="node">
<title>OrderListComponent</title>
<polygon fill="#ffffb3" stroke="black" points="3649.75,-122 3514.25,-122 3514.25,-86 3649.75,-86 3649.75,-122"/>
<text text-anchor="middle" x="3582" y="-99.8" font-family="Times,serif" font-size="14.00">OrderListComponent</text>
</g>
<!-- OrderListComponent&#45;&gt;AppModule -->
<g id="edge36" class="edge">
<title>OrderListComponent&#45;&gt;AppModule</title>
<path fill="none" stroke="black" d="M3582,-122.02C3582,-139.37 3582,-163 3582,-163 3582,-163 5196.96,-163 5196.96,-163"/>
<polygon fill="black" stroke="black" points="5196.96,-166.5 5206.96,-163 5196.96,-159.5 5196.96,-166.5"/>
</g>
<!-- OrderManagementComponent -->
<g id="node35" class="node">
<title>OrderManagementComponent</title>
<polygon fill="#ffffb3" stroke="black" points="3496.56,-122 3309.44,-122 3309.44,-86 3496.56,-86 3496.56,-122"/>
<text text-anchor="middle" x="3403" y="-99.8" font-family="Times,serif" font-size="14.00">OrderManagementComponent</text>
</g>
<!-- OrderManagementComponent&#45;&gt;AppModule -->
<g id="edge37" class="edge">
<title>OrderManagementComponent&#45;&gt;AppModule</title>
<path fill="none" stroke="black" d="M3403,-122C3403,-139.68 3403,-164 3403,-164 3403,-164 5196.98,-164 5196.98,-164"/>
<polygon fill="black" stroke="black" points="5196.98,-167.5 5206.98,-164 5196.98,-160.5 5196.98,-167.5"/>
</g>
<!-- OrderTrackingComponent -->
<g id="node36" class="node">
<title>OrderTrackingComponent</title>
<polygon fill="#ffffb3" stroke="black" points="3291.01,-122 3126.99,-122 3126.99,-86 3291.01,-86 3291.01,-122"/>
<text text-anchor="middle" x="3209" y="-99.8" font-family="Times,serif" font-size="14.00">OrderTrackingComponent</text>
</g>
<!-- OrderTrackingComponent&#45;&gt;AppModule -->
<g id="edge38" class="edge">
<title>OrderTrackingComponent&#45;&gt;AppModule</title>
<path fill="none" stroke="black" d="M3209,-122.3C3209,-140.27 3209,-165 3209,-165 3209,-165 5197.33,-165 5197.33,-165"/>
<polygon fill="black" stroke="black" points="5197.33,-168.5 5207.33,-165 5197.33,-161.5 5197.33,-168.5"/>
</g>
<!-- PaymentComponent -->
<g id="node37" class="node">
<title>PaymentComponent</title>
<polygon fill="#ffffb3" stroke="black" points="3109.33,-122 2978.67,-122 2978.67,-86 3109.33,-86 3109.33,-122"/>
<text text-anchor="middle" x="3044" y="-99.8" font-family="Times,serif" font-size="14.00">PaymentComponent</text>
</g>
<!-- PaymentComponent&#45;&gt;AppModule -->
<g id="edge39" class="edge">
<title>PaymentComponent&#45;&gt;AppModule</title>
<path fill="none" stroke="black" d="M3044,-122.27C3044,-140.56 3044,-166 3044,-166 3044,-166 5196.92,-166 5196.92,-166"/>
<polygon fill="black" stroke="black" points="5196.92,-169.5 5206.92,-166 5196.92,-162.5 5196.92,-169.5"/>
</g>
<!-- PlaceOrderComponent -->
<g id="node38" class="node">
<title>PlaceOrderComponent</title>
<polygon fill="#ffffb3" stroke="black" points="2961.29,-122 2816.71,-122 2816.71,-86 2961.29,-86 2961.29,-122"/>
<text text-anchor="middle" x="2889" y="-99.8" font-family="Times,serif" font-size="14.00">PlaceOrderComponent</text>
</g>
<!-- PlaceOrderComponent&#45;&gt;AppModule -->
<g id="edge40" class="edge">
<title>PlaceOrderComponent&#45;&gt;AppModule</title>
<path fill="none" stroke="black" d="M2913.05,-122.22C2913.05,-140.83 2913.05,-167 2913.05,-167 2913.05,-167 5196.96,-167 5196.96,-167"/>
<polygon fill="black" stroke="black" points="5196.96,-170.5 5206.96,-167 5196.96,-163.5 5196.96,-170.5"/>
</g>
<!-- PlaceOrderComponent&#45;&gt;AppModule -->
<g id="edge41" class="edge">
<title>PlaceOrderComponent&#45;&gt;AppModule</title>
<path fill="none" stroke="black" d="M2864.95,-122.17C2864.95,-141.09 2864.95,-168 2864.95,-168 2864.95,-168 5197.12,-168 5197.12,-168"/>
<polygon fill="black" stroke="black" points="5197.12,-171.5 5207.12,-168 5197.12,-164.5 5197.12,-171.5"/>
</g>
<!-- RecentOrdersComponent -->
<g id="node39" class="node">
<title>RecentOrdersComponent</title>
<polygon fill="#ffffb3" stroke="black" points="2799.29,-122 2640.71,-122 2640.71,-86 2799.29,-86 2799.29,-122"/>
<text text-anchor="middle" x="2720" y="-99.8" font-family="Times,serif" font-size="14.00">RecentOrdersComponent</text>
</g>
<!-- RecentOrdersComponent&#45;&gt;AppModule -->
<g id="edge42" class="edge">
<title>RecentOrdersComponent&#45;&gt;AppModule</title>
<path fill="none" stroke="black" d="M2720,-122.11C2720,-141.34 2720,-169 2720,-169 2720,-169 5197.21,-169 5197.21,-169"/>
<polygon fill="black" stroke="black" points="5197.21,-172.5 5207.21,-169 5197.21,-165.5 5197.21,-172.5"/>
</g>
<!-- ResetPasswordComponent -->
<g id="node40" class="node">
<title>ResetPasswordComponent</title>
<polygon fill="#ffffb3" stroke="black" points="2623.09,-122 2456.91,-122 2456.91,-86 2623.09,-86 2623.09,-122"/>
<text text-anchor="middle" x="2540" y="-99.8" font-family="Times,serif" font-size="14.00">ResetPasswordComponent</text>
</g>
<!-- ResetPasswordComponent&#45;&gt;AppModule -->
<g id="edge43" class="edge">
<title>ResetPasswordComponent&#45;&gt;AppModule</title>
<path fill="none" stroke="black" d="M2540,-122.31C2540,-142.15 2540,-171 2540,-171 2540,-171 5197.26,-171 5197.26,-171"/>
<polygon fill="black" stroke="black" points="5197.26,-174.5 5207.26,-171 5197.26,-167.5 5197.26,-174.5"/>
</g>
<!-- ReviewComponent -->
<g id="node41" class="node">
<title>ReviewComponent</title>
<polygon fill="#ffffb3" stroke="black" points="2439.1,-122 2314.9,-122 2314.9,-86 2439.1,-86 2439.1,-122"/>
<text text-anchor="middle" x="2377" y="-99.8" font-family="Times,serif" font-size="14.00">ReviewComponent</text>
</g>
<!-- ReviewComponent&#45;&gt;AppModule -->
<g id="edge44" class="edge">
<title>ReviewComponent&#45;&gt;AppModule</title>
<path fill="none" stroke="black" d="M2377,-122.22C2377,-142.37 2377,-172 2377,-172 2377,-172 5197.29,-172 5197.29,-172"/>
<polygon fill="black" stroke="black" points="5197.29,-175.5 5207.29,-172 5197.29,-168.5 5197.29,-175.5"/>
</g>
<!-- ReviewsByBookIdComponent -->
<g id="node42" class="node">
<title>ReviewsByBookIdComponent</title>
<polygon fill="#ffffb3" stroke="black" points="2296.87,-122 2109.13,-122 2109.13,-86 2296.87,-86 2296.87,-122"/>
<text text-anchor="middle" x="2203" y="-99.8" font-family="Times,serif" font-size="14.00">ReviewsByBookIdComponent</text>
</g>
<!-- ReviewsByBookIdComponent&#45;&gt;AppModule -->
<g id="edge45" class="edge">
<title>ReviewsByBookIdComponent&#45;&gt;AppModule</title>
<path fill="none" stroke="black" d="M2203,-122.13C2203,-142.57 2203,-173 2203,-173 2203,-173 5197.1,-173 5197.1,-173"/>
<polygon fill="black" stroke="black" points="5197.1,-176.5 5207.1,-173 5197.1,-169.5 5197.1,-176.5"/>
</g>
<!-- ReviewsByUserIdComponent -->
<g id="node43" class="node">
<title>ReviewsByUserIdComponent</title>
<polygon fill="#ffffb3" stroke="black" points="2090.96,-122 1907.04,-122 1907.04,-86 2090.96,-86 2090.96,-122"/>
<text text-anchor="middle" x="1999" y="-99.8" font-family="Times,serif" font-size="14.00">ReviewsByUserIdComponent</text>
</g>
<!-- ReviewsByUserIdComponent&#45;&gt;AppModule -->
<g id="edge46" class="edge">
<title>ReviewsByUserIdComponent&#45;&gt;AppModule</title>
<path fill="none" stroke="black" d="M1999,-122.03C1999,-142.77 1999,-174 1999,-174 1999,-174 5197.32,-174 5197.32,-174"/>
<polygon fill="black" stroke="black" points="5197.32,-177.5 5207.32,-174 5197.32,-170.5 5197.32,-177.5"/>
</g>
<!-- SearchtitleComponent -->
<g id="node44" class="node">
<title>SearchtitleComponent</title>
<polygon fill="#ffffb3" stroke="black" points="1888.7,-122 1747.3,-122 1747.3,-86 1888.7,-86 1888.7,-122"/>
<text text-anchor="middle" x="1818" y="-99.8" font-family="Times,serif" font-size="14.00">SearchtitleComponent</text>
</g>
<!-- SearchtitleComponent&#45;&gt;AppModule -->
<g id="edge47" class="edge">
<title>SearchtitleComponent&#45;&gt;AppModule</title>
<path fill="none" stroke="black" d="M1818,-122.28C1818,-143.32 1818,-175 1818,-175 1818,-175 5197.16,-175 5197.16,-175"/>
<polygon fill="black" stroke="black" points="5197.16,-178.5 5207.16,-175 5197.16,-171.5 5197.16,-178.5"/>
</g>
<!-- SignupComponent -->
<g id="node45" class="node">
<title>SignupComponent</title>
<polygon fill="#ffffb3" stroke="black" points="1729.51,-122 1608.49,-122 1608.49,-86 1729.51,-86 1729.51,-122"/>
<text text-anchor="middle" x="1669" y="-99.8" font-family="Times,serif" font-size="14.00">SignupComponent</text>
</g>
<!-- SignupComponent&#45;&gt;AppModule -->
<g id="edge48" class="edge">
<title>SignupComponent&#45;&gt;AppModule</title>
<path fill="none" stroke="black" d="M1669,-122.17C1669,-143.5 1669,-176 1669,-176 1669,-176 5197.24,-176 5197.24,-176"/>
<polygon fill="black" stroke="black" points="5197.24,-179.5 5207.24,-176 5197.24,-172.5 5197.24,-179.5"/>
</g>
<!-- StarsComponent -->
<g id="node46" class="node">
<title>StarsComponent</title>
<polygon fill="#ffffb3" stroke="black" points="1590.83,-122 1481.17,-122 1481.17,-86 1590.83,-86 1590.83,-122"/>
<text text-anchor="middle" x="1536" y="-99.8" font-family="Times,serif" font-size="14.00">StarsComponent</text>
</g>
<!-- StarsComponent&#45;&gt;AppModule -->
<g id="edge49" class="edge">
<title>StarsComponent&#45;&gt;AppModule</title>
<path fill="none" stroke="black" d="M1536,-122.04C1536,-143.66 1536,-177 1536,-177 1536,-177 5197.3,-177 5197.3,-177"/>
<polygon fill="black" stroke="black" points="5197.3,-180.5 5207.3,-177 5197.3,-173.5 5197.3,-180.5"/>
</g>
<!-- UpdateQuantityComponent -->
<g id="node47" class="node">
<title>UpdateQuantityComponent</title>
<polygon fill="#ffffb3" stroke="black" points="1463.25,-122 1292.75,-122 1292.75,-86 1463.25,-86 1463.25,-122"/>
<text text-anchor="middle" x="1378" y="-99.8" font-family="Times,serif" font-size="14.00">UpdateQuantityComponent</text>
</g>
<!-- UpdateQuantityComponent&#45;&gt;AppModule -->
<g id="edge50" class="edge">
<title>UpdateQuantityComponent&#45;&gt;AppModule</title>
<path fill="none" stroke="black" d="M1378,-122.29C1378,-144.21 1378,-178 1378,-178 1378,-178 5197.17,-178 5197.17,-178"/>
<polygon fill="black" stroke="black" points="5197.17,-181.5 5207.17,-178 5197.17,-174.5 5197.17,-181.5"/>
</g>
<!-- UpdateTrackingComponent -->
<g id="node48" class="node">
<title>UpdateTrackingComponent</title>
<polygon fill="#ffffb3" stroke="black" points="1274.29,-122 1101.71,-122 1101.71,-86 1274.29,-86 1274.29,-122"/>
<text text-anchor="middle" x="1188" y="-99.8" font-family="Times,serif" font-size="14.00">UpdateTrackingComponent</text>
</g>
<!-- UpdateTrackingComponent&#45;&gt;AppModule -->
<g id="edge51" class="edge">
<title>UpdateTrackingComponent&#45;&gt;AppModule</title>
<path fill="none" stroke="black" d="M1188,-122.16C1188,-144.35 1188,-179 1188,-179 1188,-179 5197.15,-179 5197.15,-179"/>
<polygon fill="black" stroke="black" points="5197.15,-182.5 5207.15,-179 5197.15,-175.5 5197.15,-182.5"/>
</g>
<!-- UpdatebookComponent -->
<g id="node49" class="node">
<title>UpdatebookComponent</title>
<polygon fill="#ffffb3" stroke="black" points="1083.76,-122 934.24,-122 934.24,-86 1083.76,-86 1083.76,-122"/>
<text text-anchor="middle" x="1009" y="-99.8" font-family="Times,serif" font-size="14.00">UpdatebookComponent</text>
</g>
<!-- UpdatebookComponent&#45;&gt;AppModule -->
<g id="edge52" class="edge">
<title>UpdatebookComponent&#45;&gt;AppModule</title>
<path fill="none" stroke="black" d="M1009,-122.01C1009,-144.49 1009,-180 1009,-180 1009,-180 5197.04,-180 5197.04,-180"/>
<polygon fill="black" stroke="black" points="5197.04,-183.5 5207.04,-180 5197.04,-176.5 5197.04,-183.5"/>
</g>
<!-- UserProfileComponent -->
<g id="node50" class="node">
<title>UserProfileComponent</title>
<polygon fill="#ffffb3" stroke="black" points="915.86,-122 770.14,-122 770.14,-86 915.86,-86 915.86,-122"/>
<text text-anchor="middle" x="843" y="-99.8" font-family="Times,serif" font-size="14.00">UserProfileComponent</text>
</g>
<!-- UserProfileComponent&#45;&gt;AppModule -->
<g id="edge53" class="edge">
<title>UserProfileComponent&#45;&gt;AppModule</title>
<path fill="none" stroke="black" d="M843,-122.25C843,-145.02 843,-181 843,-181 843,-181 5197.15,-181 5197.15,-181"/>
<polygon fill="black" stroke="black" points="5197.15,-184.5 5207.15,-181 5197.15,-177.5 5197.15,-184.5"/>
</g>
<!-- ViewByBookIDComponent -->
<g id="node51" class="node">
<title>ViewByBookIDComponent</title>
<polygon fill="#ffffb3" stroke="black" points="752.59,-122 579.41,-122 579.41,-86 752.59,-86 752.59,-122"/>
<text text-anchor="middle" x="666" y="-99.8" font-family="Times,serif" font-size="14.00">ViewByBookIDComponent</text>
</g>
<!-- ViewByBookIDComponent&#45;&gt;AppModule -->
<g id="edge54" class="edge">
<title>ViewByBookIDComponent&#45;&gt;AppModule</title>
<path fill="none" stroke="black" d="M666,-122.09C666,-145.13 666,-182 666,-182 666,-182 5197.27,-182 5197.27,-182"/>
<polygon fill="black" stroke="black" points="5197.27,-185.5 5207.27,-182 5197.27,-178.5 5197.27,-185.5"/>
</g>
<!-- ViewEditReviewComponent -->
<g id="node52" class="node">
<title>ViewEditReviewComponent</title>
<polygon fill="#ffffb3" stroke="black" points="561.75,-122 384.25,-122 384.25,-86 561.75,-86 561.75,-122"/>
<text text-anchor="middle" x="473" y="-99.8" font-family="Times,serif" font-size="14.00">ViewEditReviewComponent</text>
</g>
<!-- ViewEditReviewComponent&#45;&gt;AppModule -->
<g id="edge55" class="edge">
<title>ViewEditReviewComponent&#45;&gt;AppModule</title>
<path fill="none" stroke="black" d="M473,-122.32C473,-145.66 473,-183 473,-183 473,-183 5196.98,-183 5196.98,-183"/>
<polygon fill="black" stroke="black" points="5196.98,-186.5 5206.98,-183 5196.98,-179.5 5196.98,-186.5"/>
</g>
<!-- ViewbookidComponent -->
<g id="node53" class="node">
<title>ViewbookidComponent</title>
<polygon fill="#ffffb3" stroke="black" points="366.04,-122 215.96,-122 215.96,-86 366.04,-86 366.04,-122"/>
<text text-anchor="middle" x="291" y="-99.8" font-family="Times,serif" font-size="14.00">ViewbookidComponent</text>
</g>
<!-- ViewbookidComponent&#45;&gt;AppModule -->
<g id="edge56" class="edge">
<title>ViewbookidComponent&#45;&gt;AppModule</title>
<path fill="none" stroke="black" d="M316.09,-122.15C316.09,-145.76 316.09,-184 316.09,-184 316.09,-184 5197.1,-184 5197.1,-184"/>
<polygon fill="black" stroke="black" points="5197.1,-187.5 5207.1,-184 5197.1,-180.5 5197.1,-187.5"/>
</g>
<!-- ViewbookidComponent&#45;&gt;AppModule -->
<g id="edge57" class="edge">
<title>ViewbookidComponent&#45;&gt;AppModule</title>
<path fill="none" stroke="black" d="M265.91,-122.38C265.91,-146.28 265.91,-185 265.91,-185 265.91,-185 5197.05,-185 5197.05,-185"/>
<polygon fill="black" stroke="black" points="5197.05,-188.5 5207.05,-185 5197.05,-181.5 5197.05,-188.5"/>
</g>
<!-- WelcomeAdminComponent -->
<g id="node54" class="node">
<title>WelcomeAdminComponent</title>
<polygon fill="#ffffb3" stroke="black" points="197.86,-122 24.14,-122 24.14,-86 197.86,-86 197.86,-122"/>
<text text-anchor="middle" x="111" y="-99.8" font-family="Times,serif" font-size="14.00">WelcomeAdminComponent</text>
</g>
<!-- WelcomeAdminComponent&#45;&gt;AppModule -->
<g id="edge58" class="edge">
<title>WelcomeAdminComponent&#45;&gt;AppModule</title>
<path fill="none" stroke="black" d="M111,-122.2C111,-146.36 111,-186 111,-186 111,-186 5197.27,-186 5197.27,-186"/>
<polygon fill="black" stroke="black" points="5197.27,-189.5 5207.27,-186 5197.27,-182.5 5197.27,-189.5"/>
</g>
<!-- AppComponent  -->
<g id="node58" class="node">
<title>AppComponent </title>
<polygon fill="#80b1d3" stroke="black" points="5303.44,-252 5194.56,-252 5194.56,-216 5303.44,-216 5303.44,-252"/>
<text text-anchor="middle" x="5249" y="-229.8" font-family="Times,serif" font-size="14.00">AppComponent </text>
</g>
<!-- AppModule&#45;&gt;AppComponent  -->
<g id="edge61" class="edge">
<title>AppModule&#45;&gt;AppComponent </title>
<path fill="none" stroke="black" stroke-dasharray="1,5" d="M5249,-187.11C5249,-187.11 5249,-205.99 5249,-205.99"/>
<polygon fill="black" stroke="black" points="5245.5,-205.99 5249,-215.99 5252.5,-205.99 5245.5,-205.99"/>
</g>
<!-- AppRoutingModule -->
<g id="node56" class="node">
<title>AppRoutingModule</title>
<polygon fill="#8dd3c7" stroke="black" points="9498.27,-122 9495.27,-126 9474.27,-126 9471.27,-122 9369.73,-122 9369.73,-86 9498.27,-86 9498.27,-122"/>
<text text-anchor="middle" x="9434" y="-99.8" font-family="Times,serif" font-size="14.00">AppRoutingModule</text>
</g>
<!-- AppRoutingModule&#45;&gt;AppModule -->
<g id="edge59" class="edge">
<title>AppRoutingModule&#45;&gt;AppModule</title>
<path fill="none" stroke="black" d="M9434,-122.16C9434,-144.35 9434,-179 9434,-179 9434,-179 5300.76,-179 5300.76,-179"/>
<polygon fill="black" stroke="black" points="5300.76,-175.5 5290.76,-179 5300.76,-182.5 5300.76,-175.5"/>
</g>
<!-- RouterOutlet -->
<g id="node57" class="node">
<title>RouterOutlet</title>
<polygon fill="#8dd3c7" stroke="black" points="9351.6,-122 9348.6,-126 9327.6,-126 9324.6,-122 9262.4,-122 9262.4,-86 9351.6,-86 9351.6,-122"/>
<text text-anchor="middle" x="9307" y="-99.8" font-family="Times,serif" font-size="14.00">RouterOutlet</text>
</g>
<!-- RouterOutlet&#45;&gt;AppModule -->
<g id="edge60" class="edge">
<title>RouterOutlet&#45;&gt;AppModule</title>
<path fill="none" stroke="black" d="M9307,-122.29C9307,-144.21 9307,-178 9307,-178 9307,-178 5300.82,-178 5300.82,-178"/>
<polygon fill="black" stroke="black" points="5300.82,-174.5 5290.82,-178 5300.82,-181.5 5300.82,-174.5"/>
</g>
<!-- AuthInterceptor -->
<g id="node59" class="node">
<title>AuthInterceptor</title>
<ellipse fill="#fdb462" stroke="black" cx="10514" cy="-104" rx="72.91" ry="18"/>
<text text-anchor="middle" x="10514" y="-99.8" font-family="Times,serif" font-size="14.00">AuthInterceptor</text>
</g>
<!-- AuthInterceptor&#45;&gt;AppModule -->
<g id="edge62" class="edge">
<title>AuthInterceptor&#45;&gt;AppModule</title>
<path fill="none" stroke="black" d="M10514,-122.2C10514,-146.36 10514,-186 10514,-186 10514,-186 5301,-186 5301,-186"/>
<polygon fill="black" stroke="black" points="5301,-182.5 5291,-186 5301,-189.5 5301,-182.5"/>
</g>
<!-- BookInfoService -->
<g id="node60" class="node">
<title>BookInfoService</title>
<ellipse fill="#fdb462" stroke="black" cx="10346" cy="-104" rx="77.01" ry="18"/>
<text text-anchor="middle" x="10346" y="-99.8" font-family="Times,serif" font-size="14.00">BookInfoService</text>
</g>
<!-- BookInfoService&#45;&gt;AppModule -->
<g id="edge63" class="edge">
<title>BookInfoService&#45;&gt;AppModule</title>
<path fill="none" stroke="black" d="M10346,-122.38C10346,-146.28 10346,-185 10346,-185 10346,-185 5300.78,-185 5300.78,-185"/>
<polygon fill="black" stroke="black" points="5300.78,-181.5 5290.78,-185 5300.78,-188.5 5300.78,-181.5"/>
</g>
<!-- BookService -->
<g id="node61" class="node">
<title>BookService</title>
<ellipse fill="#fdb462" stroke="black" cx="10190" cy="-104" rx="60.84" ry="18"/>
<text text-anchor="middle" x="10190" y="-99.8" font-family="Times,serif" font-size="14.00">BookService</text>
</g>
<!-- BookService&#45;&gt;AppModule -->
<g id="edge64" class="edge">
<title>BookService&#45;&gt;AppModule</title>
<path fill="none" stroke="black" d="M10190,-122.15C10190,-145.76 10190,-184 10190,-184 10190,-184 5300.97,-184 5300.97,-184"/>
<polygon fill="black" stroke="black" points="5300.97,-180.5 5290.97,-184 5300.97,-187.5 5300.97,-180.5"/>
</g>
<!-- InventoryService -->
<g id="node62" class="node">
<title>InventoryService</title>
<ellipse fill="#fdb462" stroke="black" cx="10034" cy="-104" rx="77.57" ry="18"/>
<text text-anchor="middle" x="10034" y="-99.8" font-family="Times,serif" font-size="14.00">InventoryService</text>
</g>
<!-- InventoryService&#45;&gt;AppModule -->
<g id="edge65" class="edge">
<title>InventoryService&#45;&gt;AppModule</title>
<path fill="none" stroke="black" d="M10034,-122.32C10034,-145.66 10034,-183 10034,-183 10034,-183 5300.73,-183 5300.73,-183"/>
<polygon fill="black" stroke="black" points="5300.73,-179.5 5290.73,-183 5300.73,-186.5 5300.73,-179.5"/>
</g>
<!-- OrderService -->
<g id="node63" class="node">
<title>OrderService</title>
<ellipse fill="#fdb462" stroke="black" cx="9876" cy="-104" rx="62.52" ry="18"/>
<text text-anchor="middle" x="9876" y="-99.8" font-family="Times,serif" font-size="14.00">OrderService</text>
</g>
<!-- OrderService&#45;&gt;AppModule -->
<g id="edge66" class="edge">
<title>OrderService&#45;&gt;AppModule</title>
<path fill="none" stroke="black" d="M9876,-122.09C9876,-145.13 9876,-182 9876,-182 9876,-182 5300.77,-182 5300.77,-182"/>
<polygon fill="black" stroke="black" points="5300.77,-178.5 5290.77,-182 5300.77,-185.5 5300.77,-178.5"/>
</g>
<!-- ReviewService -->
<g id="node64" class="node">
<title>ReviewService</title>
<ellipse fill="#fdb462" stroke="black" cx="9726" cy="-104" rx="69.48" ry="18"/>
<text text-anchor="middle" x="9726" y="-99.8" font-family="Times,serif" font-size="14.00">ReviewService</text>
</g>
<!-- ReviewService&#45;&gt;AppModule -->
<g id="edge67" class="edge">
<title>ReviewService&#45;&gt;AppModule</title>
<path fill="none" stroke="black" d="M9726,-122.25C9726,-145.02 9726,-181 9726,-181 9726,-181 5300.81,-181 5300.81,-181"/>
<polygon fill="black" stroke="black" points="5300.81,-177.5 5290.81,-181 5300.81,-184.5 5300.81,-177.5"/>
</g>
<!-- UserService -->
<g id="node65" class="node">
<title>UserService</title>
<ellipse fill="#fdb462" stroke="black" cx="9580" cy="-104" rx="58.44" ry="18"/>
<text text-anchor="middle" x="9580" y="-99.8" font-family="Times,serif" font-size="14.00">UserService</text>
</g>
<!-- UserService&#45;&gt;AppModule -->
<g id="edge68" class="edge">
<title>UserService&#45;&gt;AppModule</title>
<path fill="none" stroke="black" d="M9580,-122.01C9580,-144.49 9580,-180 9580,-180 9580,-180 5300.82,-180 5300.82,-180"/>
<polygon fill="black" stroke="black" points="5300.82,-176.5 5290.82,-180 5300.82,-183.5 5300.82,-176.5"/>
</g>
</g>
</svg>
