<?xml version="1.0" encoding="UTF-8" standalone="no"?>
<!DOCTYPE svg PUBLIC "-//W3C//DTD SVG 1.1//EN"
 "http://www.w3.org/Graphics/SVG/1.1/DTD/svg11.dtd">
<!-- Generated by graphviz version 2.47.0 (20210316.0004)
 -->
<!-- Title: dependencies Pages: 1 -->
<svg width="10619pt" height="284pt"
 viewBox="0.00 0.00 10619.00 284.00" xmlns="http://www.w3.org/2000/svg" xmlns:xlink="http://www.w3.org/1999/xlink">
<g id="graph0" class="graph" transform="scale(1 1) rotate(0) translate(4 280)">
<title>dependencies</title>
<polygon fill="white" stroke="transparent" points="-4,4 -4,-280 10615,-280 10615,4 -4,4"/>
<text text-anchor="start" x="5284.51" y="-42.4" font-family="Times-12" font-weight="bold" font-size="14.00">Legend</text>
<polygon fill="#ffffb3" stroke="transparent" points="5071.5,-10 5071.5,-30 5091.5,-30 5091.5,-10 5071.5,-10"/>
<text text-anchor="start" x="5095.13" y="-15.4" font-family="Times-12" font-size="14.00"> &#160;Declarations</text>
<polygon fill="#8dd3c7" stroke="transparent" points="5184.5,-10 5184.5,-30 5204.5,-30 5204.5,-10 5184.5,-10"/>
<text text-anchor="start" x="5208.23" y="-15.4" font-family="Times-12" font-size="14.00"> &#160;Module</text>
<polygon fill="#80b1d3" stroke="transparent" points="5270.5,-10 5270.5,-30 5290.5,-30 5290.5,-10 5270.5,-10"/>
<text text-anchor="start" x="5294.28" y="-15.4" font-family="Times-12" font-size="14.00"> &#160;Bootstrap</text>
<polygon fill="#fdb462" stroke="transparent" points="5367.5,-10 5367.5,-30 5387.5,-30 5387.5,-10 5367.5,-10"/>
<text text-anchor="start" x="5391.17" y="-15.4" font-family="Times-12" font-size="14.00"> &#160;Providers</text>
<polygon fill="#fb8072" stroke="transparent" points="5463.5,-10 5463.5,-30 5483.5,-30 5483.5,-10 5463.5,-10"/>
<text text-anchor="start" x="5487.23" y="-15.4" font-family="Times-12" font-size="14.00"> &#160;Exports</text>
<g id="clust1" class="cluster">
<title>cluster_AppModule</title>
<polygon fill="none" stroke="black" stroke-dasharray="1,5" points="8,-70 8,-268 10603,-268 10603,-70 8,-70"/>
</g>
<g id="clust2" class="cluster">
<title>cluster_AppModule_declarations</title>
<polygon fill="none" stroke="black" points="1365,-78 1365,-130 10595,-130 10595,-78 1365,-78"/>
</g>
<g id="clust57" class="cluster">
<title>cluster_AppModule_imports</title>
<polygon fill="none" stroke="black" points="1105,-78 1105,-130 1357,-130 1357,-78 1105,-78"/>
</g>
<g id="clust59" class="cluster">
<title>cluster_AppModule_bootstrap</title>
<polygon fill="none" stroke="black" points="5188,-208 5188,-260 5312,-260 5312,-208 5188,-208"/>
</g>
<g id="clust60" class="cluster">
<title>cluster_AppModule_providers</title>
<polygon fill="none" stroke="black" points="16,-78 16,-130 1097,-130 1097,-78 16,-78"/>
</g>
<!-- AddToCartComponent -->
<g id="node1" class="node">
<title>AddToCartComponent</title>
<polygon fill="#ffffb3" stroke="black" points="10586.59,-122 10441.41,-122 10441.41,-86 10586.59,-86 10586.59,-122"/>
<text text-anchor="middle" x="10514" y="-99.8" font-family="Times,serif" font-size="14.00">AddToCartComponent</text>
</g>
<!-- AppModule -->
<g id="node55" class="node">
<title>AppModule</title>
<polygon fill="#8dd3c7" stroke="black" points="5291.66,-187 5288.66,-191 5267.66,-191 5264.66,-187 5208.34,-187 5208.34,-151 5291.66,-151 5291.66,-187"/>
<text text-anchor="middle" x="5250" y="-164.8" font-family="Times,serif" font-size="14.00">AppModule</text>
</g>
<!-- AddToCartComponent&#45;&gt;AppModule -->
<g id="edge1" class="edge">
<title>AddToCartComponent&#45;&gt;AppModule</title>
<path fill="none" stroke="black" d="M10514,-122.2C10514,-146.36 10514,-186 10514,-186 10514,-186 5301.99,-186 5301.99,-186"/>
<polygon fill="black" stroke="black" points="5301.99,-182.5 5291.99,-186 5301.99,-189.5 5301.99,-182.5"/>
</g>
<!-- AddUpdateReviewComponent -->
<g id="node2" class="node">
<title>AddUpdateReviewComponent</title>
<polygon fill="#ffffb3" stroke="black" points="10423.13,-122 10234.87,-122 10234.87,-86 10423.13,-86 10423.13,-122"/>
<text text-anchor="middle" x="10329" y="-99.8" font-family="Times,serif" font-size="14.00">AddUpdateReviewComponent</text>
</g>
<!-- AddUpdateReviewComponent&#45;&gt;AppModule -->
<g id="edge2" class="edge">
<title>AddUpdateReviewComponent&#45;&gt;AppModule</title>
<path fill="none" stroke="black" d="M10329,-122.38C10329,-146.28 10329,-185 10329,-185 10329,-185 5302.01,-185 5302.01,-185"/>
<polygon fill="black" stroke="black" points="5302.01,-181.5 5292.01,-185 5302.01,-188.5 5302.01,-181.5"/>
</g>
<!-- AddbookComponent -->
<g id="node3" class="node">
<title>AddbookComponent</title>
<polygon fill="#ffffb3" stroke="black" points="10216.94,-122 10083.06,-122 10083.06,-86 10216.94,-86 10216.94,-122"/>
<text text-anchor="middle" x="10150" y="-99.8" font-family="Times,serif" font-size="14.00">AddbookComponent</text>
</g>
<!-- AddbookComponent&#45;&gt;AppModule -->
<g id="edge3" class="edge">
<title>AddbookComponent&#45;&gt;AppModule</title>
<path fill="none" stroke="black" d="M10150,-122.15C10150,-145.76 10150,-184 10150,-184 10150,-184 5301.99,-184 5301.99,-184"/>
<polygon fill="black" stroke="black" points="5301.99,-180.5 5291.99,-184 5301.99,-187.5 5301.99,-180.5"/>
</g>
<!-- AdminDashboardComponent -->
<g id="node4" class="node">
<title>AdminDashboardComponent</title>
<polygon fill="#ffffb3" stroke="black" points="10065.36,-122 9884.64,-122 9884.64,-86 10065.36,-86 10065.36,-122"/>
<text text-anchor="middle" x="9975" y="-99.8" font-family="Times,serif" font-size="14.00">AdminDashboardComponent</text>
</g>
<!-- AdminDashboardComponent&#45;&gt;AppModule -->
<g id="edge4" class="edge">
<title>AdminDashboardComponent&#45;&gt;AppModule</title>
<path fill="none" stroke="black" d="M9975,-122.09C9975,-145.13 9975,-182 9975,-182 9975,-182 5301.93,-182 5301.93,-182"/>
<polygon fill="black" stroke="black" points="5301.93,-178.5 5291.93,-182 5301.93,-185.5 5301.93,-178.5"/>
</g>
<!-- AdminDashboardComponent&#45;&gt;AppModule -->
<g id="edge5" class="edge">
<title>AdminDashboardComponent&#45;&gt;AppModule</title>
<path fill="none" stroke="black" d="M10020.22,-122.32C10020.22,-145.66 10020.22,-183 10020.22,-183 10020.22,-183 5301.96,-183 5301.96,-183"/>
<polygon fill="black" stroke="black" points="5301.96,-179.5 5291.96,-183 5301.96,-186.5 5301.96,-179.5"/>
</g>
<!-- AdminDashboardComponent&#45;&gt;AppModule -->
<g id="edge6" class="edge">
<title>AdminDashboardComponent&#45;&gt;AppModule</title>
<path fill="none" stroke="black" d="M9929.78,-122.25C9929.78,-145.02 9929.78,-181 9929.78,-181 9929.78,-181 5301.89,-181 5301.89,-181"/>
<polygon fill="black" stroke="black" points="5301.89,-177.5 5291.89,-181 5301.89,-184.5 5301.89,-177.5"/>
</g>
<!-- AdminHomeComponent -->
<g id="node5" class="node">
<title>AdminHomeComponent</title>
<polygon fill="#ffffb3" stroke="black" points="9866.43,-122 9711.57,-122 9711.57,-86 9866.43,-86 9866.43,-122"/>
<text text-anchor="middle" x="9789" y="-99.8" font-family="Times,serif" font-size="14.00">AdminHomeComponent</text>
</g>
<!-- AdminHomeComponent&#45;&gt;AppModule -->
<g id="edge7" class="edge">
<title>AdminHomeComponent&#45;&gt;AppModule</title>
<path fill="none" stroke="black" d="M9789,-122.01C9789,-144.49 9789,-180 9789,-180 9789,-180 5301.68,-180 5301.68,-180"/>
<polygon fill="black" stroke="black" points="5301.68,-176.5 5291.68,-180 5301.68,-183.5 5301.68,-176.5"/>
</g>
<!-- AdminReturnProcessComponent -->
<g id="node6" class="node">
<title>AdminReturnProcessComponent</title>
<polygon fill="#ffffb3" stroke="black" points="9693.58,-122 9492.42,-122 9492.42,-86 9693.58,-86 9693.58,-122"/>
<text text-anchor="middle" x="9593" y="-99.8" font-family="Times,serif" font-size="14.00">AdminReturnProcessComponent</text>
</g>
<!-- AdminReturnProcessComponent&#45;&gt;AppModule -->
<g id="edge8" class="edge">
<title>AdminReturnProcessComponent&#45;&gt;AppModule</title>
<path fill="none" stroke="black" d="M9593,-122.16C9593,-144.35 9593,-179 9593,-179 9593,-179 5301.94,-179 5301.94,-179"/>
<polygon fill="black" stroke="black" points="5301.94,-175.5 5291.94,-179 5301.94,-182.5 5301.94,-175.5"/>
</g>
<!-- AllReviewsComponent -->
<g id="node7" class="node">
<title>AllReviewsComponent</title>
<polygon fill="#ffffb3" stroke="black" points="9474.93,-122 9327.07,-122 9327.07,-86 9474.93,-86 9474.93,-122"/>
<text text-anchor="middle" x="9401" y="-99.8" font-family="Times,serif" font-size="14.00">AllReviewsComponent</text>
</g>
<!-- AllReviewsComponent&#45;&gt;AppModule -->
<g id="edge9" class="edge">
<title>AllReviewsComponent&#45;&gt;AppModule</title>
<path fill="none" stroke="black" d="M9401,-122.29C9401,-144.21 9401,-178 9401,-178 9401,-178 5301.76,-178 5301.76,-178"/>
<polygon fill="black" stroke="black" points="5301.76,-174.5 5291.76,-178 5301.76,-181.5 5301.76,-174.5"/>
</g>
<!-- AllorderstatusComponent -->
<g id="node8" class="node">
<title>AllorderstatusComponent</title>
<polygon fill="#ffffb3" stroke="black" points="9309.14,-122 9148.86,-122 9148.86,-86 9309.14,-86 9309.14,-122"/>
<text text-anchor="middle" x="9229" y="-99.8" font-family="Times,serif" font-size="14.00">AllorderstatusComponent</text>
</g>
<!-- AllorderstatusComponent&#45;&gt;AppModule -->
<g id="edge10" class="edge">
<title>AllorderstatusComponent&#45;&gt;AppModule</title>
<path fill="none" stroke="black" d="M9229,-122.04C9229,-143.66 9229,-177 9229,-177 9229,-177 5301.66,-177 5301.66,-177"/>
<polygon fill="black" stroke="black" points="5301.66,-173.5 5291.66,-177 5301.66,-180.5 5301.66,-173.5"/>
</g>
<!-- AppComponent -->
<g id="node9" class="node">
<title>AppComponent</title>
<polygon fill="#ffffb3" stroke="black" points="9130.94,-122 9025.06,-122 9025.06,-86 9130.94,-86 9130.94,-122"/>
<text text-anchor="middle" x="9078" y="-99.8" font-family="Times,serif" font-size="14.00">AppComponent</text>
</g>
<!-- AppComponent&#45;&gt;AppModule -->
<g id="edge11" class="edge">
<title>AppComponent&#45;&gt;AppModule</title>
<path fill="none" stroke="black" d="M9078,-122.17C9078,-143.5 9078,-176 9078,-176 9078,-176 5301.69,-176 5301.69,-176"/>
<polygon fill="black" stroke="black" points="5301.69,-172.5 5291.69,-176 5301.69,-179.5 5301.69,-172.5"/>
</g>
<!-- AverageRatingComponent -->
<g id="node10" class="node">
<title>AverageRatingComponent</title>
<polygon fill="#ffffb3" stroke="black" points="9007.08,-122 8840.92,-122 8840.92,-86 9007.08,-86 9007.08,-122"/>
<text text-anchor="middle" x="8924" y="-99.8" font-family="Times,serif" font-size="14.00">AverageRatingComponent</text>
</g>
<!-- AverageRatingComponent&#45;&gt;AppModule -->
<g id="edge12" class="edge">
<title>AverageRatingComponent&#45;&gt;AppModule</title>
<path fill="none" stroke="black" d="M8924,-122.28C8924,-143.32 8924,-175 8924,-175 8924,-175 5301.89,-175 5301.89,-175"/>
<polygon fill="black" stroke="black" points="5301.89,-171.5 5291.89,-175 5301.89,-178.5 5301.89,-171.5"/>
</g>
<!-- BookCarouselComponent -->
<g id="node11" class="node">
<title>BookCarouselComponent</title>
<polygon fill="#ffffb3" stroke="black" points="8822.93,-122 8661.07,-122 8661.07,-86 8822.93,-86 8822.93,-122"/>
<text text-anchor="middle" x="8742" y="-99.8" font-family="Times,serif" font-size="14.00">BookCarouselComponent</text>
</g>
<!-- BookCarouselComponent&#45;&gt;AppModule -->
<g id="edge13" class="edge">
<title>BookCarouselComponent&#45;&gt;AppModule</title>
<path fill="none" stroke="black" d="M8742,-122.03C8742,-142.77 8742,-174 8742,-174 8742,-174 5301.96,-174 5301.96,-174"/>
<polygon fill="black" stroke="black" points="5301.96,-170.5 5291.96,-174 5301.96,-177.5 5301.96,-170.5"/>
</g>
<!-- BookDealComponent -->
<g id="node12" class="node">
<title>BookDealComponent</title>
<polygon fill="#ffffb3" stroke="black" points="8643.1,-122 8504.9,-122 8504.9,-86 8643.1,-86 8643.1,-122"/>
<text text-anchor="middle" x="8574" y="-99.8" font-family="Times,serif" font-size="14.00">BookDealComponent</text>
</g>
<!-- BookDealComponent&#45;&gt;AppModule -->
<g id="edge14" class="edge">
<title>BookDealComponent&#45;&gt;AppModule</title>
<path fill="none" stroke="black" d="M8574,-122.13C8574,-142.57 8574,-173 8574,-173 8574,-173 5301.73,-173 5301.73,-173"/>
<polygon fill="black" stroke="black" points="5301.73,-169.5 5291.73,-173 5301.73,-176.5 5301.73,-169.5"/>
</g>
<!-- BookHeroComponent -->
<g id="node13" class="node">
<title>BookHeroComponent</title>
<polygon fill="#ffffb3" stroke="black" points="8486.65,-122 8347.35,-122 8347.35,-86 8486.65,-86 8486.65,-122"/>
<text text-anchor="middle" x="8417" y="-99.8" font-family="Times,serif" font-size="14.00">BookHeroComponent</text>
</g>
<!-- BookHeroComponent&#45;&gt;AppModule -->
<g id="edge15" class="edge">
<title>BookHeroComponent&#45;&gt;AppModule</title>
<path fill="none" stroke="black" d="M8417,-122.22C8417,-142.37 8417,-172 8417,-172 8417,-172 5301.79,-172 5301.79,-172"/>
<polygon fill="black" stroke="black" points="5301.79,-168.5 5291.79,-172 5301.79,-175.5 5301.79,-168.5"/>
</g>
<!-- BookdetailsComponent -->
<g id="node14" class="node">
<title>BookdetailsComponent</title>
<polygon fill="#ffffb3" stroke="black" points="8329.21,-122 8180.79,-122 8180.79,-86 8329.21,-86 8329.21,-122"/>
<text text-anchor="middle" x="8255" y="-99.8" font-family="Times,serif" font-size="14.00">BookdetailsComponent</text>
</g>
<!-- BookdetailsComponent&#45;&gt;AppModule -->
<g id="edge16" class="edge">
<title>BookdetailsComponent&#45;&gt;AppModule</title>
<path fill="none" stroke="black" d="M8255,-122.31C8255,-142.15 8255,-171 8255,-171 8255,-171 5301.91,-171 5301.91,-171"/>
<polygon fill="black" stroke="black" points="5301.91,-167.5 5291.91,-171 5301.91,-174.5 5301.91,-167.5"/>
</g>
<!-- CartComponent -->
<g id="node15" class="node">
<title>CartComponent</title>
<polygon fill="#ffffb3" stroke="black" points="8162.94,-122 8057.06,-122 8057.06,-86 8162.94,-86 8162.94,-122"/>
<text text-anchor="middle" x="8110" y="-99.8" font-family="Times,serif" font-size="14.00">CartComponent</text>
</g>
<!-- CartComponent&#45;&gt;AppModule -->
<g id="edge17" class="edge">
<title>CartComponent&#45;&gt;AppModule</title>
<path fill="none" stroke="black" d="M8110,-122.11C8110,-141.34 8110,-169 8110,-169 8110,-169 5301.81,-169 5301.81,-169"/>
<polygon fill="black" stroke="black" points="5301.81,-165.5 5291.81,-169 5301.81,-172.5 5301.81,-165.5"/>
</g>
<!-- CategorybooksComponent -->
<g id="node16" class="node">
<title>CategorybooksComponent</title>
<polygon fill="#ffffb3" stroke="black" points="8039.09,-122 7872.91,-122 7872.91,-86 8039.09,-86 8039.09,-122"/>
<text text-anchor="middle" x="7956" y="-99.8" font-family="Times,serif" font-size="14.00">CategorybooksComponent</text>
</g>
<!-- CategorybooksComponent&#45;&gt;AppModule -->
<g id="edge18" class="edge">
<title>CategorybooksComponent&#45;&gt;AppModule</title>
<path fill="none" stroke="black" d="M7956,-122.17C7956,-141.09 7956,-168 7956,-168 7956,-168 5301.69,-168 5301.69,-168"/>
<polygon fill="black" stroke="black" points="5301.69,-164.5 5291.69,-168 5301.69,-171.5 5301.69,-164.5"/>
</g>
<!-- CategorybookslistComponent -->
<g id="node17" class="node">
<title>CategorybookslistComponent</title>
<polygon fill="#ffffb3" stroke="black" points="7854.71,-122 7671.29,-122 7671.29,-86 7854.71,-86 7854.71,-122"/>
<text text-anchor="middle" x="7763" y="-99.8" font-family="Times,serif" font-size="14.00">CategorybookslistComponent</text>
</g>
<!-- CategorybookslistComponent&#45;&gt;AppModule -->
<g id="edge19" class="edge">
<title>CategorybookslistComponent&#45;&gt;AppModule</title>
<path fill="none" stroke="black" d="M7763,-122.22C7763,-140.83 7763,-167 7763,-167 7763,-167 5301.78,-167 5301.78,-167"/>
<polygon fill="black" stroke="black" points="5301.78,-163.5 5291.78,-167 5301.78,-170.5 5301.78,-163.5"/>
</g>
<!-- DashboardInventoryComponent -->
<g id="node18" class="node">
<title>DashboardInventoryComponent</title>
<polygon fill="#ffffb3" stroke="black" points="7653.4,-122 7456.6,-122 7456.6,-86 7653.4,-86 7653.4,-122"/>
<text text-anchor="middle" x="7555" y="-99.8" font-family="Times,serif" font-size="14.00">DashboardInventoryComponent</text>
</g>
<!-- DashboardInventoryComponent&#45;&gt;AppModule -->
<g id="edge20" class="edge">
<title>DashboardInventoryComponent&#45;&gt;AppModule</title>
<path fill="none" stroke="black" d="M7555,-122.27C7555,-140.56 7555,-166 7555,-166 7555,-166 5301.98,-166 5301.98,-166"/>
<polygon fill="black" stroke="black" points="5301.98,-162.5 5291.98,-166 5301.98,-169.5 5301.98,-162.5"/>
</g>
<!-- DealOfTheDayComponent -->
<g id="node19" class="node">
<title>DealOfTheDayComponent</title>
<polygon fill="#ffffb3" stroke="black" points="7438.61,-122 7271.39,-122 7271.39,-86 7438.61,-86 7438.61,-122"/>
<text text-anchor="middle" x="7355" y="-99.8" font-family="Times,serif" font-size="14.00">DealOfTheDayComponent</text>
</g>
<!-- DealOfTheDayComponent&#45;&gt;AppModule -->
<g id="edge21" class="edge">
<title>DealOfTheDayComponent&#45;&gt;AppModule</title>
<path fill="none" stroke="black" d="M7355,-122.3C7355,-140.27 7355,-165 7355,-165 7355,-165 5302.05,-165 5302.05,-165"/>
<polygon fill="black" stroke="black" points="5302.05,-161.5 5292.05,-165 5302.05,-168.5 5302.05,-161.5"/>
</g>
<!-- DeleteBookInventoryComponent -->
<g id="node20" class="node">
<title>DeleteBookInventoryComponent</title>
<polygon fill="#ffffb3" stroke="black" points="7253.13,-122 7050.87,-122 7050.87,-86 7253.13,-86 7253.13,-122"/>
<text text-anchor="middle" x="7152" y="-99.8" font-family="Times,serif" font-size="14.00">DeleteBookInventoryComponent</text>
</g>
<!-- DeleteBookInventoryComponent&#45;&gt;AppModule -->
<g id="edge22" class="edge">
<title>DeleteBookInventoryComponent&#45;&gt;AppModule</title>
<path fill="none" stroke="black" d="M7152,-122C7152,-139.68 7152,-164 7152,-164 7152,-164 5301.94,-164 5301.94,-164"/>
<polygon fill="black" stroke="black" points="5301.94,-160.5 5291.94,-164 5301.94,-167.5 5301.94,-160.5"/>
</g>
<!-- DeletebookComponent -->
<g id="node21" class="node">
<title>DeletebookComponent</title>
<polygon fill="#ffffb3" stroke="black" points="7032.86,-122 6887.14,-122 6887.14,-86 7032.86,-86 7032.86,-122"/>
<text text-anchor="middle" x="6960" y="-99.8" font-family="Times,serif" font-size="14.00">DeletebookComponent</text>
</g>
<!-- DeletebookComponent&#45;&gt;AppModule -->
<g id="edge23" class="edge">
<title>DeletebookComponent&#45;&gt;AppModule</title>
<path fill="none" stroke="black" d="M6960,-122.02C6960,-139.37 6960,-163 6960,-163 6960,-163 5301.85,-163 5301.85,-163"/>
<polygon fill="black" stroke="black" points="5301.85,-159.5 5291.85,-163 5301.85,-166.5 5301.85,-159.5"/>
</g>
<!-- DisplayInventoryComponent -->
<g id="node22" class="node">
<title>DisplayInventoryComponent</title>
<polygon fill="#ffffb3" stroke="black" points="6868.81,-122 6689.19,-122 6689.19,-86 6868.81,-86 6868.81,-122"/>
<text text-anchor="middle" x="6779" y="-99.8" font-family="Times,serif" font-size="14.00">DisplayInventoryComponent</text>
</g>
<!-- DisplayInventoryComponent&#45;&gt;AppModule -->
<g id="edge24" class="edge">
<title>DisplayInventoryComponent&#45;&gt;AppModule</title>
<path fill="none" stroke="black" d="M6779,-122.03C6779,-139.06 6779,-162 6779,-162 6779,-162 5301.69,-162 5301.69,-162"/>
<polygon fill="black" stroke="black" points="5301.69,-158.5 5291.69,-162 5301.69,-165.5 5301.69,-158.5"/>
</g>
<!-- EditorspickComponent -->
<g id="node23" class="node">
<title>EditorspickComponent</title>
<polygon fill="#ffffb3" stroke="black" points="6670.88,-122 6525.12,-122 6525.12,-86 6670.88,-86 6670.88,-122"/>
<text text-anchor="middle" x="6598" y="-99.8" font-family="Times,serif" font-size="14.00">EditorspickComponent</text>
</g>
<!-- EditorspickComponent&#45;&gt;AppModule -->
<g id="edge25" class="edge">
<title>EditorspickComponent&#45;&gt;AppModule</title>
<path fill="none" stroke="black" d="M6598,-122.04C6598,-138.73 6598,-161 6598,-161 6598,-161 5301.82,-161 5301.82,-161"/>
<polygon fill="black" stroke="black" points="5301.82,-157.5 5291.82,-161 5301.82,-164.5 5301.82,-157.5"/>
</g>
<!-- FilterComponent -->
<g id="node24" class="node">
<title>FilterComponent</title>
<polygon fill="#ffffb3" stroke="black" points="6506.66,-122 6395.34,-122 6395.34,-86 6506.66,-86 6506.66,-122"/>
<text text-anchor="middle" x="6451" y="-99.8" font-family="Times,serif" font-size="14.00">FilterComponent</text>
</g>
<!-- FilterComponent&#45;&gt;AppModule -->
<g id="edge26" class="edge">
<title>FilterComponent&#45;&gt;AppModule</title>
<path fill="none" stroke="black" d="M6451,-122.03C6451,-138.4 6451,-160 6451,-160 6451,-160 5301.69,-160 5301.69,-160"/>
<polygon fill="black" stroke="black" points="5301.69,-156.5 5291.69,-160 5301.69,-163.5 5301.69,-156.5"/>
</g>
<!-- FooterComponent -->
<g id="node25" class="node">
<title>FooterComponent</title>
<polygon fill="#ffffb3" stroke="black" points="6376.88,-122 6259.12,-122 6259.12,-86 6376.88,-86 6376.88,-122"/>
<text text-anchor="middle" x="6318" y="-99.8" font-family="Times,serif" font-size="14.00">FooterComponent</text>
</g>
<!-- FooterComponent&#45;&gt;AppModule -->
<g id="edge27" class="edge">
<title>FooterComponent&#45;&gt;AppModule</title>
<path fill="none" stroke="black" d="M6318,-122.01C6318,-138.05 6318,-159 6318,-159 6318,-159 5301.87,-159 5301.87,-159"/>
<polygon fill="black" stroke="black" points="5301.87,-155.5 5291.87,-159 5301.87,-162.5 5301.87,-155.5"/>
</g>
<!-- ForgotPasswordComponent -->
<g id="node26" class="node">
<title>ForgotPasswordComponent</title>
<polygon fill="#ffffb3" stroke="black" points="6241.32,-122 6068.68,-122 6068.68,-86 6241.32,-86 6241.32,-122"/>
<text text-anchor="middle" x="6155" y="-99.8" font-family="Times,serif" font-size="14.00">ForgotPasswordComponent</text>
</g>
<!-- ForgotPasswordComponent&#45;&gt;AppModule -->
<g id="edge28" class="edge">
<title>ForgotPasswordComponent&#45;&gt;AppModule</title>
<path fill="none" stroke="black" d="M6155,-122.28C6155,-137.95 6155,-158 6155,-158 6155,-158 5301.83,-158 5301.83,-158"/>
<polygon fill="black" stroke="black" points="5301.84,-154.5 5291.83,-158 5301.83,-161.5 5301.84,-154.5"/>
</g>
<!-- HomeComponent -->
<g id="node27" class="node">
<title>HomeComponent</title>
<polygon fill="#ffffb3" stroke="black" points="6050.55,-122 5935.45,-122 5935.45,-86 6050.55,-86 6050.55,-122"/>
<text text-anchor="middle" x="5993" y="-99.8" font-family="Times,serif" font-size="14.00">HomeComponent</text>
</g>
<!-- HomeComponent&#45;&gt;AppModule -->
<g id="edge29" class="edge">
<title>HomeComponent&#45;&gt;AppModule</title>
<path fill="none" stroke="black" d="M5993,-122.24C5993,-137.57 5993,-157 5993,-157 5993,-157 5301.81,-157 5301.81,-157"/>
<polygon fill="black" stroke="black" points="5301.81,-153.5 5291.81,-157 5301.81,-160.5 5301.81,-153.5"/>
</g>
<!-- LeftSidebarComponent -->
<g id="node28" class="node">
<title>LeftSidebarComponent</title>
<polygon fill="#ffffb3" stroke="black" points="5917.91,-122 5770.09,-122 5770.09,-86 5917.91,-86 5917.91,-122"/>
<text text-anchor="middle" x="5844" y="-99.8" font-family="Times,serif" font-size="14.00">LeftSidebarComponent</text>
</g>
<!-- LeftSidebarComponent&#45;&gt;AppModule -->
<g id="edge30" class="edge">
<title>LeftSidebarComponent&#45;&gt;AppModule</title>
<path fill="none" stroke="black" d="M5844,-122.19C5844,-137.18 5844,-156 5844,-156 5844,-156 5301.77,-156 5301.77,-156"/>
<polygon fill="black" stroke="black" points="5301.77,-152.5 5291.77,-156 5301.77,-159.5 5301.77,-152.5"/>
</g>
<!-- LoginComponent -->
<g id="node29" class="node">
<title>LoginComponent</title>
<polygon fill="#ffffb3" stroke="black" points="5752.28,-122 5637.72,-122 5637.72,-86 5752.28,-86 5752.28,-122"/>
<text text-anchor="middle" x="5695" y="-99.8" font-family="Times,serif" font-size="14.00">LoginComponent</text>
</g>
<!-- LoginComponent&#45;&gt;AppModule -->
<g id="edge31" class="edge">
<title>LoginComponent&#45;&gt;AppModule</title>
<path fill="none" stroke="black" d="M5695,-122.12C5695,-136.78 5695,-155 5695,-155 5695,-155 5301.86,-155 5301.86,-155"/>
<polygon fill="black" stroke="black" points="5301.86,-151.5 5291.86,-155 5301.86,-158.5 5301.86,-151.5"/>
</g>
<!-- MainComponent -->
<g id="node30" class="node">
<title>MainComponent</title>
<polygon fill="#ffffb3" stroke="black" points="5619.38,-122 5508.62,-122 5508.62,-86 5619.38,-86 5619.38,-122"/>
<text text-anchor="middle" x="5564" y="-99.8" font-family="Times,serif" font-size="14.00">MainComponent</text>
</g>
<!-- MainComponent&#45;&gt;AppModule -->
<g id="edge32" class="edge">
<title>MainComponent&#45;&gt;AppModule</title>
<path fill="none" stroke="black" d="M5564,-122.05C5564,-136.37 5564,-154 5564,-154 5564,-154 5301.7,-154 5301.7,-154"/>
<polygon fill="black" stroke="black" points="5301.7,-150.5 5291.7,-154 5301.7,-157.5 5301.7,-150.5"/>
</g>
<!-- NavbarAdminComponent -->
<g id="node31" class="node">
<title>NavbarAdminComponent</title>
<polygon fill="#ffffb3" stroke="black" points="5490.92,-122 5329.08,-122 5329.08,-86 5490.92,-86 5490.92,-122"/>
<text text-anchor="middle" x="5410" y="-99.8" font-family="Times,serif" font-size="14.00">NavbarAdminComponent</text>
</g>
<!-- NavbarAdminComponent&#45;&gt;AppModule -->
<g id="edge33" class="edge">
<title>NavbarAdminComponent&#45;&gt;AppModule</title>
<path fill="none" stroke="black" d="M5410,-122.25C5410,-136.18 5410,-153 5410,-153 5410,-153 5302.04,-153 5302.04,-153"/>
<polygon fill="black" stroke="black" points="5302.04,-149.5 5292.04,-153 5302.04,-156.5 5302.04,-149.5"/>
</g>
<!-- NavbarComponent -->
<g id="node32" class="node">
<title>NavbarComponent</title>
<polygon fill="#ffffb3" stroke="black" points="5311.03,-122 5188.97,-122 5188.97,-86 5311.03,-86 5311.03,-122"/>
<text text-anchor="middle" x="5250" y="-99.8" font-family="Times,serif" font-size="14.00">NavbarComponent</text>
</g>
<!-- NavbarComponent&#45;&gt;AppModule -->
<g id="edge34" class="edge">
<title>NavbarComponent&#45;&gt;AppModule</title>
<path fill="none" stroke="black" d="M5250,-122.11C5250,-122.11 5250,-140.99 5250,-140.99"/>
<polygon fill="black" stroke="black" points="5246.5,-140.99 5250,-150.99 5253.5,-140.99 5246.5,-140.99"/>
</g>
<!-- OrderDetailsComponent -->
<g id="node33" class="node">
<title>OrderDetailsComponent</title>
<polygon fill="#ffffb3" stroke="black" points="5170.63,-122 5017.37,-122 5017.37,-86 5170.63,-86 5170.63,-122"/>
<text text-anchor="middle" x="5094" y="-99.8" font-family="Times,serif" font-size="14.00">OrderDetailsComponent</text>
</g>
<!-- OrderDetailsComponent&#45;&gt;AppModule -->
<g id="edge35" class="edge">
<title>OrderDetailsComponent&#45;&gt;AppModule</title>
<path fill="none" stroke="black" d="M5094,-122.25C5094,-136.18 5094,-153 5094,-153 5094,-153 5198.19,-153 5198.19,-153"/>
<polygon fill="black" stroke="black" points="5198.19,-156.5 5208.19,-153 5198.19,-149.5 5198.19,-156.5"/>
</g>
<!-- OrderListComponent -->
<g id="node34" class="node">
<title>OrderListComponent</title>
<polygon fill="#ffffb3" stroke="black" points="4998.75,-122 4863.25,-122 4863.25,-86 4998.75,-86 4998.75,-122"/>
<text text-anchor="middle" x="4931" y="-99.8" font-family="Times,serif" font-size="14.00">OrderListComponent</text>
</g>
<!-- OrderListComponent&#45;&gt;AppModule -->
<g id="edge36" class="edge">
<title>OrderListComponent&#45;&gt;AppModule</title>
<path fill="none" stroke="black" d="M4931,-122.05C4931,-136.37 4931,-154 4931,-154 4931,-154 5198.3,-154 5198.3,-154"/>
<polygon fill="black" stroke="black" points="5198.3,-157.5 5208.3,-154 5198.3,-150.5 5198.3,-157.5"/>
</g>
<!-- OrderManagementComponent -->
<g id="node35" class="node">
<title>OrderManagementComponent</title>
<polygon fill="#ffffb3" stroke="black" points="4845.56,-122 4658.44,-122 4658.44,-86 4845.56,-86 4845.56,-122"/>
<text text-anchor="middle" x="4752" y="-99.8" font-family="Times,serif" font-size="14.00">OrderManagementComponent</text>
</g>
<!-- OrderManagementComponent&#45;&gt;AppModule -->
<g id="edge37" class="edge">
<title>OrderManagementComponent&#45;&gt;AppModule</title>
<path fill="none" stroke="black" d="M4752,-122.12C4752,-136.78 4752,-155 4752,-155 4752,-155 5197.97,-155 5197.97,-155"/>
<polygon fill="black" stroke="black" points="5197.97,-158.5 5207.97,-155 5197.97,-151.5 5197.97,-158.5"/>
</g>
<!-- OrderTrackingComponent -->
<g id="node36" class="node">
<title>OrderTrackingComponent</title>
<polygon fill="#ffffb3" stroke="black" points="4640.01,-122 4475.99,-122 4475.99,-86 4640.01,-86 4640.01,-122"/>
<text text-anchor="middle" x="4558" y="-99.8" font-family="Times,serif" font-size="14.00">OrderTrackingComponent</text>
</g>
<!-- OrderTrackingComponent&#45;&gt;AppModule -->
<g id="edge38" class="edge">
<title>OrderTrackingComponent&#45;&gt;AppModule</title>
<path fill="none" stroke="black" d="M4558,-122.19C4558,-137.18 4558,-156 4558,-156 4558,-156 5198.27,-156 5198.27,-156"/>
<polygon fill="black" stroke="black" points="5198.27,-159.5 5208.27,-156 5198.27,-152.5 5198.27,-159.5"/>
</g>
<!-- PaymentComponent -->
<g id="node37" class="node">
<title>PaymentComponent</title>
<polygon fill="#ffffb3" stroke="black" points="4458.33,-122 4327.67,-122 4327.67,-86 4458.33,-86 4458.33,-122"/>
<text text-anchor="middle" x="4393" y="-99.8" font-family="Times,serif" font-size="14.00">PaymentComponent</text>
</g>
<!-- PaymentComponent&#45;&gt;AppModule -->
<g id="edge39" class="edge">
<title>PaymentComponent&#45;&gt;AppModule</title>
<path fill="none" stroke="black" d="M4393,-122.24C4393,-137.57 4393,-157 4393,-157 4393,-157 5198.08,-157 5198.08,-157"/>
<polygon fill="black" stroke="black" points="5198.09,-160.5 5208.08,-157 5198.08,-153.5 5198.09,-160.5"/>
</g>
<!-- PlaceOrderComponent -->
<g id="node38" class="node">
<title>PlaceOrderComponent</title>
<polygon fill="#ffffb3" stroke="black" points="4310.29,-122 4165.71,-122 4165.71,-86 4310.29,-86 4310.29,-122"/>
<text text-anchor="middle" x="4238" y="-99.8" font-family="Times,serif" font-size="14.00">PlaceOrderComponent</text>
</g>
<!-- PlaceOrderComponent&#45;&gt;AppModule -->
<g id="edge40" class="edge">
<title>PlaceOrderComponent&#45;&gt;AppModule</title>
<path fill="none" stroke="black" d="M4213.95,-122.01C4213.95,-138.05 4213.95,-159 4213.95,-159 4213.95,-159 5198.1,-159 5198.1,-159"/>
<polygon fill="black" stroke="black" points="5198.1,-162.5 5208.1,-159 5198.1,-155.5 5198.1,-162.5"/>
</g>
<!-- PlaceOrderComponent&#45;&gt;AppModule -->
<g id="edge41" class="edge">
<title>PlaceOrderComponent&#45;&gt;AppModule</title>
<path fill="none" stroke="black" d="M4262.05,-122.28C4262.05,-137.95 4262.05,-158 4262.05,-158 4262.05,-158 5198.18,-158 5198.18,-158"/>
<polygon fill="black" stroke="black" points="5198.18,-161.5 5208.18,-158 5198.18,-154.5 5198.18,-161.5"/>
</g>
<!-- RecentOrdersComponent -->
<g id="node39" class="node">
<title>RecentOrdersComponent</title>
<polygon fill="#ffffb3" stroke="black" points="4148.29,-122 3989.71,-122 3989.71,-86 4148.29,-86 4148.29,-122"/>
<text text-anchor="middle" x="4069" y="-99.8" font-family="Times,serif" font-size="14.00">RecentOrdersComponent</text>
</g>
<!-- RecentOrdersComponent&#45;&gt;AppModule -->
<g id="edge42" class="edge">
<title>RecentOrdersComponent&#45;&gt;AppModule</title>
<path fill="none" stroke="black" d="M4069,-122.03C4069,-138.4 4069,-160 4069,-160 4069,-160 5198.31,-160 5198.31,-160"/>
<polygon fill="black" stroke="black" points="5198.31,-163.5 5208.31,-160 5198.31,-156.5 5198.31,-163.5"/>
</g>
<!-- ResetPasswordComponent -->
<g id="node40" class="node">
<title>ResetPasswordComponent</title>
<polygon fill="#ffffb3" stroke="black" points="3972.09,-122 3805.91,-122 3805.91,-86 3972.09,-86 3972.09,-122"/>
<text text-anchor="middle" x="3889" y="-99.8" font-family="Times,serif" font-size="14.00">ResetPasswordComponent</text>
</g>
<!-- ResetPasswordComponent&#45;&gt;AppModule -->
<g id="edge43" class="edge">
<title>ResetPasswordComponent&#45;&gt;AppModule</title>
<path fill="none" stroke="black" d="M3889,-122.04C3889,-138.73 3889,-161 3889,-161 3889,-161 5198.15,-161 5198.15,-161"/>
<polygon fill="black" stroke="black" points="5198.15,-164.5 5208.15,-161 5198.15,-157.5 5198.15,-164.5"/>
</g>
<!-- ReviewComponent -->
<g id="node41" class="node">
<title>ReviewComponent</title>
<polygon fill="#ffffb3" stroke="black" points="3788.1,-122 3663.9,-122 3663.9,-86 3788.1,-86 3788.1,-122"/>
<text text-anchor="middle" x="3726" y="-99.8" font-family="Times,serif" font-size="14.00">ReviewComponent</text>
</g>
<!-- ReviewComponent&#45;&gt;AppModule -->
<g id="edge44" class="edge">
<title>ReviewComponent&#45;&gt;AppModule</title>
<path fill="none" stroke="black" d="M3726,-122.03C3726,-139.06 3726,-162 3726,-162 3726,-162 5198.05,-162 5198.05,-162"/>
<polygon fill="black" stroke="black" points="5198.05,-165.5 5208.05,-162 5198.05,-158.5 5198.05,-165.5"/>
</g>
<!-- ReviewsByBookIdComponent -->
<g id="node42" class="node">
<title>ReviewsByBookIdComponent</title>
<polygon fill="#ffffb3" stroke="black" points="3645.87,-122 3458.13,-122 3458.13,-86 3645.87,-86 3645.87,-122"/>
<text text-anchor="middle" x="3552" y="-99.8" font-family="Times,serif" font-size="14.00">ReviewsByBookIdComponent</text>
</g>
<!-- ReviewsByBookIdComponent&#45;&gt;AppModule -->
<g id="edge45" class="edge">
<title>ReviewsByBookIdComponent&#45;&gt;AppModule</title>
<path fill="none" stroke="black" d="M3552,-122.02C3552,-139.37 3552,-163 3552,-163 3552,-163 5198.03,-163 5198.03,-163"/>
<polygon fill="black" stroke="black" points="5198.03,-166.5 5208.03,-163 5198.03,-159.5 5198.03,-166.5"/>
</g>
<!-- ReviewsByUserIdComponent -->
<g id="node43" class="node">
<title>ReviewsByUserIdComponent</title>
<polygon fill="#ffffb3" stroke="black" points="3439.96,-122 3256.04,-122 3256.04,-86 3439.96,-86 3439.96,-122"/>
<text text-anchor="middle" x="3348" y="-99.8" font-family="Times,serif" font-size="14.00">ReviewsByUserIdComponent</text>
</g>
<!-- ReviewsByUserIdComponent&#45;&gt;AppModule -->
<g id="edge46" class="edge">
<title>ReviewsByUserIdComponent&#45;&gt;AppModule</title>
<path fill="none" stroke="black" d="M3348,-122C3348,-139.68 3348,-164 3348,-164 3348,-164 5198.06,-164 5198.06,-164"/>
<polygon fill="black" stroke="black" points="5198.06,-167.5 5208.06,-164 5198.06,-160.5 5198.06,-167.5"/>
</g>
<!-- SearchtitleComponent -->
<g id="node44" class="node">
<title>SearchtitleComponent</title>
<polygon fill="#ffffb3" stroke="black" points="3237.7,-122 3096.3,-122 3096.3,-86 3237.7,-86 3237.7,-122"/>
<text text-anchor="middle" x="3167" y="-99.8" font-family="Times,serif" font-size="14.00">SearchtitleComponent</text>
</g>
<!-- SearchtitleComponent&#45;&gt;AppModule -->
<g id="edge47" class="edge">
<title>SearchtitleComponent&#45;&gt;AppModule</title>
<path fill="none" stroke="black" d="M3167,-122.3C3167,-140.27 3167,-165 3167,-165 3167,-165 5197.92,-165 5197.92,-165"/>
<polygon fill="black" stroke="black" points="5197.92,-168.5 5207.92,-165 5197.92,-161.5 5197.92,-168.5"/>
</g>
<!-- SignupComponent -->
<g id="node45" class="node">
<title>SignupComponent</title>
<polygon fill="#ffffb3" stroke="black" points="3078.51,-122 2957.49,-122 2957.49,-86 3078.51,-86 3078.51,-122"/>
<text text-anchor="middle" x="3018" y="-99.8" font-family="Times,serif" font-size="14.00">SignupComponent</text>
</g>
<!-- SignupComponent&#45;&gt;AppModule -->
<g id="edge48" class="edge">
<title>SignupComponent&#45;&gt;AppModule</title>
<path fill="none" stroke="black" d="M3018,-122.27C3018,-140.56 3018,-166 3018,-166 3018,-166 5197.9,-166 5197.9,-166"/>
<polygon fill="black" stroke="black" points="5197.9,-169.5 5207.9,-166 5197.9,-162.5 5197.9,-169.5"/>
</g>
<!-- StarsComponent -->
<g id="node46" class="node">
<title>StarsComponent</title>
<polygon fill="#ffffb3" stroke="black" points="2939.83,-122 2830.17,-122 2830.17,-86 2939.83,-86 2939.83,-122"/>
<text text-anchor="middle" x="2885" y="-99.8" font-family="Times,serif" font-size="14.00">StarsComponent</text>
</g>
<!-- StarsComponent&#45;&gt;AppModule -->
<g id="edge49" class="edge">
<title>StarsComponent&#45;&gt;AppModule</title>
<path fill="none" stroke="black" d="M2885,-122.22C2885,-140.83 2885,-167 2885,-167 2885,-167 5198.2,-167 5198.2,-167"/>
<polygon fill="black" stroke="black" points="5198.2,-170.5 5208.2,-167 5198.2,-163.5 5198.2,-170.5"/>
</g>
<!-- UpdateQuantityComponent -->
<g id="node47" class="node">
<title>UpdateQuantityComponent</title>
<polygon fill="#ffffb3" stroke="black" points="2812.25,-122 2641.75,-122 2641.75,-86 2812.25,-86 2812.25,-122"/>
<text text-anchor="middle" x="2727" y="-99.8" font-family="Times,serif" font-size="14.00">UpdateQuantityComponent</text>
</g>
<!-- UpdateQuantityComponent&#45;&gt;AppModule -->
<g id="edge50" class="edge">
<title>UpdateQuantityComponent&#45;&gt;AppModule</title>
<path fill="none" stroke="black" d="M2727,-122.17C2727,-141.09 2727,-168 2727,-168 2727,-168 5198.31,-168 5198.31,-168"/>
<polygon fill="black" stroke="black" points="5198.31,-171.5 5208.31,-168 5198.31,-164.5 5198.31,-171.5"/>
</g>
<!-- UpdateTrackingComponent -->
<g id="node48" class="node">
<title>UpdateTrackingComponent</title>
<polygon fill="#ffffb3" stroke="black" points="2623.29,-122 2450.71,-122 2450.71,-86 2623.29,-86 2623.29,-122"/>
<text text-anchor="middle" x="2537" y="-99.8" font-family="Times,serif" font-size="14.00">UpdateTrackingComponent</text>
</g>
<!-- UpdateTrackingComponent&#45;&gt;AppModule -->
<g id="edge51" class="edge">
<title>UpdateTrackingComponent&#45;&gt;AppModule</title>
<path fill="none" stroke="black" d="M2537,-122.11C2537,-141.34 2537,-169 2537,-169 2537,-169 5198.2,-169 5198.2,-169"/>
<polygon fill="black" stroke="black" points="5198.2,-172.5 5208.2,-169 5198.2,-165.5 5198.2,-172.5"/>
</g>
<!-- UpdatebookComponent -->
<g id="node49" class="node">
<title>UpdatebookComponent</title>
<polygon fill="#ffffb3" stroke="black" points="2432.76,-122 2283.24,-122 2283.24,-86 2432.76,-86 2432.76,-122"/>
<text text-anchor="middle" x="2358" y="-99.8" font-family="Times,serif" font-size="14.00">UpdatebookComponent</text>
</g>
<!-- UpdatebookComponent&#45;&gt;AppModule -->
<g id="edge52" class="edge">
<title>UpdatebookComponent&#45;&gt;AppModule</title>
<path fill="none" stroke="black" d="M2358,-122.31C2358,-142.15 2358,-171 2358,-171 2358,-171 5198.28,-171 5198.28,-171"/>
<polygon fill="black" stroke="black" points="5198.28,-174.5 5208.28,-171 5198.28,-167.5 5198.28,-174.5"/>
</g>
<!-- UserProfileComponent -->
<g id="node50" class="node">
<title>UserProfileComponent</title>
<polygon fill="#ffffb3" stroke="black" points="2264.86,-122 2119.14,-122 2119.14,-86 2264.86,-86 2264.86,-122"/>
<text text-anchor="middle" x="2192" y="-99.8" font-family="Times,serif" font-size="14.00">UserProfileComponent</text>
</g>
<!-- UserProfileComponent&#45;&gt;AppModule -->
<g id="edge53" class="edge">
<title>UserProfileComponent&#45;&gt;AppModule</title>
<path fill="none" stroke="black" d="M2192,-122.22C2192,-142.37 2192,-172 2192,-172 2192,-172 5198.22,-172 5198.22,-172"/>
<polygon fill="black" stroke="black" points="5198.22,-175.5 5208.22,-172 5198.22,-168.5 5198.22,-175.5"/>
</g>
<!-- ViewByBookIDComponent -->
<g id="node51" class="node">
<title>ViewByBookIDComponent</title>
<polygon fill="#ffffb3" stroke="black" points="2101.59,-122 1928.41,-122 1928.41,-86 2101.59,-86 2101.59,-122"/>
<text text-anchor="middle" x="2015" y="-99.8" font-family="Times,serif" font-size="14.00">ViewByBookIDComponent</text>
</g>
<!-- ViewByBookIDComponent&#45;&gt;AppModule -->
<g id="edge54" class="edge">
<title>ViewByBookIDComponent&#45;&gt;AppModule</title>
<path fill="none" stroke="black" d="M2015,-122.13C2015,-142.57 2015,-173 2015,-173 2015,-173 5198.21,-173 5198.21,-173"/>
<polygon fill="black" stroke="black" points="5198.21,-176.5 5208.21,-173 5198.21,-169.5 5198.21,-176.5"/>
</g>
<!-- ViewEditReviewComponent -->
<g id="node52" class="node">
<title>ViewEditReviewComponent</title>
<polygon fill="#ffffb3" stroke="black" points="1910.75,-122 1733.25,-122 1733.25,-86 1910.75,-86 1910.75,-122"/>
<text text-anchor="middle" x="1822" y="-99.8" font-family="Times,serif" font-size="14.00">ViewEditReviewComponent</text>
</g>
<!-- ViewEditReviewComponent&#45;&gt;AppModule -->
<g id="edge55" class="edge">
<title>ViewEditReviewComponent&#45;&gt;AppModule</title>
<path fill="none" stroke="black" d="M1822,-122.03C1822,-142.77 1822,-174 1822,-174 1822,-174 5198.2,-174 5198.2,-174"/>
<polygon fill="black" stroke="black" points="5198.2,-177.5 5208.2,-174 5198.2,-170.5 5198.2,-177.5"/>
</g>
<!-- ViewbookidComponent -->
<g id="node53" class="node">
<title>ViewbookidComponent</title>
<polygon fill="#ffffb3" stroke="black" points="1715.04,-122 1564.96,-122 1564.96,-86 1715.04,-86 1715.04,-122"/>
<text text-anchor="middle" x="1640" y="-99.8" font-family="Times,serif" font-size="14.00">ViewbookidComponent</text>
</g>
<!-- ViewbookidComponent&#45;&gt;AppModule -->
<g id="edge56" class="edge">
<title>ViewbookidComponent&#45;&gt;AppModule</title>
<path fill="none" stroke="black" d="M1665.09,-122.28C1665.09,-143.32 1665.09,-175 1665.09,-175 1665.09,-175 5198.19,-175 5198.19,-175"/>
<polygon fill="black" stroke="black" points="5198.19,-178.5 5208.19,-175 5198.19,-171.5 5198.19,-178.5"/>
</g>
<!-- ViewbookidComponent&#45;&gt;AppModule -->
<g id="edge57" class="edge">
<title>ViewbookidComponent&#45;&gt;AppModule</title>
<path fill="none" stroke="black" d="M1614.91,-122.17C1614.91,-143.5 1614.91,-176 1614.91,-176 1614.91,-176 5198.24,-176 5198.24,-176"/>
<polygon fill="black" stroke="black" points="5198.24,-179.5 5208.24,-176 5198.24,-172.5 5198.24,-179.5"/>
</g>
<!-- WelcomeAdminComponent -->
<g id="node54" class="node">
<title>WelcomeAdminComponent</title>
<polygon fill="#ffffb3" stroke="black" points="1546.86,-122 1373.14,-122 1373.14,-86 1546.86,-86 1546.86,-122"/>
<text text-anchor="middle" x="1460" y="-99.8" font-family="Times,serif" font-size="14.00">WelcomeAdminComponent</text>
</g>
<!-- WelcomeAdminComponent&#45;&gt;AppModule -->
<g id="edge58" class="edge">
<title>WelcomeAdminComponent&#45;&gt;AppModule</title>
<path fill="none" stroke="black" d="M1460,-122.04C1460,-143.66 1460,-177 1460,-177 1460,-177 5198.08,-177 5198.08,-177"/>
<polygon fill="black" stroke="black" points="5198.08,-180.5 5208.08,-177 5198.08,-173.5 5198.08,-180.5"/>
</g>
<!-- AppComponent  -->
<g id="node58" class="node">
<title>AppComponent </title>
<polygon fill="#80b1d3" stroke="black" points="5304.44,-252 5195.56,-252 5195.56,-216 5304.44,-216 5304.44,-252"/>
<text text-anchor="middle" x="5250" y="-229.8" font-family="Times,serif" font-size="14.00">AppComponent </text>
</g>
<!-- AppModule&#45;&gt;AppComponent  -->
<g id="edge61" class="edge">
<title>AppModule&#45;&gt;AppComponent </title>
<path fill="none" stroke="black" stroke-dasharray="1,5" d="M5250,-187.11C5250,-187.11 5250,-205.99 5250,-205.99"/>
<polygon fill="black" stroke="black" points="5246.5,-205.99 5250,-215.99 5253.5,-205.99 5246.5,-205.99"/>
</g>
<!-- AppRoutingModule -->
<g id="node56" class="node">
<title>AppRoutingModule</title>
<polygon fill="#8dd3c7" stroke="black" points="1349.27,-122 1346.27,-126 1325.27,-126 1322.27,-122 1220.73,-122 1220.73,-86 1349.27,-86 1349.27,-122"/>
<text text-anchor="middle" x="1285" y="-99.8" font-family="Times,serif" font-size="14.00">AppRoutingModule</text>
</g>
<!-- AppRoutingModule&#45;&gt;AppModule -->
<g id="edge59" class="edge">
<title>AppRoutingModule&#45;&gt;AppModule</title>
<path fill="none" stroke="black" d="M1285,-122.29C1285,-144.21 1285,-178 1285,-178 1285,-178 5198.15,-178 5198.15,-178"/>
<polygon fill="black" stroke="black" points="5198.15,-181.5 5208.15,-178 5198.15,-174.5 5198.15,-181.5"/>
</g>
<!-- RouterOutlet -->
<g id="node57" class="node">
<title>RouterOutlet</title>
<polygon fill="#8dd3c7" stroke="black" points="1202.6,-122 1199.6,-126 1178.6,-126 1175.6,-122 1113.4,-122 1113.4,-86 1202.6,-86 1202.6,-122"/>
<text text-anchor="middle" x="1158" y="-99.8" font-family="Times,serif" font-size="14.00">RouterOutlet</text>
</g>
<!-- RouterOutlet&#45;&gt;AppModule -->
<g id="edge60" class="edge">
<title>RouterOutlet&#45;&gt;AppModule</title>
<path fill="none" stroke="black" d="M1158,-122.16C1158,-144.35 1158,-179 1158,-179 1158,-179 5198.17,-179 5198.17,-179"/>
<polygon fill="black" stroke="black" points="5198.17,-182.5 5208.17,-179 5198.17,-175.5 5198.17,-182.5"/>
</g>
<!-- AuthInterceptor -->
<g id="node59" class="node">
<title>AuthInterceptor</title>
<ellipse fill="#fdb462" stroke="black" cx="1016" cy="-104" rx="72.91" ry="18"/>
<text text-anchor="middle" x="1016" y="-99.8" font-family="Times,serif" font-size="14.00">AuthInterceptor</text>
</g>
<!-- AuthInterceptor&#45;&gt;AppModule -->
<g id="edge62" class="edge">
<title>AuthInterceptor&#45;&gt;AppModule</title>
<path fill="none" stroke="black" d="M1016,-122.01C1016,-144.49 1016,-180 1016,-180 1016,-180 5198.09,-180 5198.09,-180"/>
<polygon fill="black" stroke="black" points="5198.09,-183.5 5208.09,-180 5198.09,-176.5 5198.09,-183.5"/>
</g>
<!-- BookInfoService -->
<g id="node60" class="node">
<title>BookInfoService</title>
<ellipse fill="#fdb462" stroke="black" cx="848" cy="-104" rx="77.01" ry="18"/>
<text text-anchor="middle" x="848" y="-99.8" font-family="Times,serif" font-size="14.00">BookInfoService</text>
</g>
<!-- BookInfoService&#45;&gt;AppModule -->
<g id="edge63" class="edge">
<title>BookInfoService&#45;&gt;AppModule</title>
<path fill="none" stroke="black" d="M848,-122.25C848,-145.02 848,-181 848,-181 848,-181 5198.19,-181 5198.19,-181"/>
<polygon fill="black" stroke="black" points="5198.19,-184.5 5208.19,-181 5198.19,-177.5 5198.19,-184.5"/>
</g>
<!-- BookService -->
<g id="node61" class="node">
<title>BookService</title>
<ellipse fill="#fdb462" stroke="black" cx="692" cy="-104" rx="60.84" ry="18"/>
<text text-anchor="middle" x="692" y="-99.8" font-family="Times,serif" font-size="14.00">BookService</text>
</g>
<!-- BookService&#45;&gt;AppModule -->
<g id="edge64" class="edge">
<title>BookService&#45;&gt;AppModule</title>
<path fill="none" stroke="black" d="M692,-122.09C692,-145.13 692,-182 692,-182 692,-182 5198.14,-182 5198.14,-182"/>
<polygon fill="black" stroke="black" points="5198.14,-185.5 5208.14,-182 5198.14,-178.5 5198.14,-185.5"/>
</g>
<!-- InventoryService -->
<g id="node62" class="node">
<title>InventoryService</title>
<ellipse fill="#fdb462" stroke="black" cx="536" cy="-104" rx="77.57" ry="18"/>
<text text-anchor="middle" x="536" y="-99.8" font-family="Times,serif" font-size="14.00">InventoryService</text>
</g>
<!-- InventoryService&#45;&gt;AppModule -->
<g id="edge65" class="edge">
<title>InventoryService&#45;&gt;AppModule</title>
<path fill="none" stroke="black" d="M536,-122.32C536,-145.66 536,-183 536,-183 536,-183 5198.17,-183 5198.17,-183"/>
<polygon fill="black" stroke="black" points="5198.17,-186.5 5208.17,-183 5198.17,-179.5 5198.17,-186.5"/>
</g>
<!-- OrderService -->
<g id="node63" class="node">
<title>OrderService</title>
<ellipse fill="#fdb462" stroke="black" cx="378" cy="-104" rx="62.52" ry="18"/>
<text text-anchor="middle" x="378" y="-99.8" font-family="Times,serif" font-size="14.00">OrderService</text>
</g>
<!-- OrderService&#45;&gt;AppModule -->
<g id="edge66" class="edge">
<title>OrderService&#45;&gt;AppModule</title>
<path fill="none" stroke="black" d="M378,-122.15C378,-145.76 378,-184 378,-184 378,-184 5198.25,-184 5198.25,-184"/>
<polygon fill="black" stroke="black" points="5198.25,-187.5 5208.25,-184 5198.25,-180.5 5198.25,-187.5"/>
</g>
<!-- ReviewService -->
<g id="node64" class="node">
<title>ReviewService</title>
<ellipse fill="#fdb462" stroke="black" cx="228" cy="-104" rx="69.48" ry="18"/>
<text text-anchor="middle" x="228" y="-99.8" font-family="Times,serif" font-size="14.00">ReviewService</text>
</g>
<!-- ReviewService&#45;&gt;AppModule -->
<g id="edge67" class="edge">
<title>ReviewService&#45;&gt;AppModule</title>
<path fill="none" stroke="black" d="M228,-122.38C228,-146.28 228,-185 228,-185 228,-185 5198.09,-185 5198.09,-185"/>
<polygon fill="black" stroke="black" points="5198.09,-188.5 5208.09,-185 5198.09,-181.5 5198.09,-188.5"/>
</g>
<!-- UserService -->
<g id="node65" class="node">
<title>UserService</title>
<ellipse fill="#fdb462" stroke="black" cx="82" cy="-104" rx="58.44" ry="18"/>
<text text-anchor="middle" x="82" y="-99.8" font-family="Times,serif" font-size="14.00">UserService</text>
</g>
<!-- UserService&#45;&gt;AppModule -->
<g id="edge68" class="edge">
<title>UserService&#45;&gt;AppModule</title>
<path fill="none" stroke="black" d="M82,-122.2C82,-146.36 82,-186 82,-186 82,-186 5198.02,-186 5198.02,-186"/>
<polygon fill="black" stroke="black" points="5198.02,-189.5 5208.02,-186 5198.02,-182.5 5198.02,-189.5"/>
</g>
</g>
</svg>
